<?xml version="1.0" encoding="UTF-8"?>
<svg version="1.1" xmlns="http://www.w3.org/2000/svg" width="500" height="500">
<path d="M0 0 C2.203125 0.04296875 2.203125 0.04296875 5 1 C6.80295605 3.42682661 8.27406464 5.69962714 9.75 8.3125 C13.56858535 14.77098764 17.6551448 20.74513178 22.28515625 26.64453125 C24 29 24 29 25 32 C25.66 32 26.32 32 27 32 C27 32.66 27 33.32 27 34 C27.66 34 28.32 34 29 34 C29 34.66 29 35.32 29 36 C29.66 36 30.32 36 31 36 C31 36.66 31 37.32 31 38 C31.99 38.33 32.98 38.66 34 39 C34 39.66 34 40.32 34 41 C34.66 41 35.32 41 36 41 C36 41.66 36 42.32 36 43 C36.56847656 43.25652344 37.13695312 43.51304688 37.72265625 43.77734375 C40.2475633 45.13291134 42.23762462 46.72617907 44.4375 48.5625 C51.19125771 54.0536858 58.30773904 59.33957058 65.88671875 63.63671875 C66.58410156 64.08660156 67.28148437 64.53648437 68 65 C68 65.66 68 66.32 68 67 C69.051875 67.37125 69.051875 67.37125 70.125 67.75 C73.39514548 69.17180238 76.141122 70.87246288 79 73 C79 73.66 79 74.32 79 75 C79.66 75 80.32 75 81 75 C81 75.66 81 76.32 81 77 C81.56203125 77.2371875 82.1240625 77.474375 82.703125 77.71875 C85.51894042 79.28947697 87.47955416 81.21471464 89.75 83.5 C90.94882813 84.69109375 90.94882813 84.69109375 92.171875 85.90625 C94 88 94 88 94 90 C94.66 90 95.32 90 96 90 C97.49381291 91.70218367 98.92097016 93.46322891 100.3125 95.25 C105.63759793 102.13926338 105.63759793 102.13926338 113.25 105.875 C119.34983683 104.45170474 122.19751641 99.74631433 126 95 C133.8537808 85.47052028 142.57142323 77.6059919 155 75 C163.54751008 74.33276503 168.83326497 75.01082052 175.875 80.0625 C176.57625 80.701875 177.2775 81.34125 178 82 C178 82.66 178 83.32 178 84 C178.92941406 84.10957031 179.85882813 84.21914062 180.81640625 84.33203125 C187.35322802 85.17043488 193.13418521 85.92743035 199 89 C198.67 89.66 198.34 90.32 198 91 C195.8125 91.7109375 195.8125 91.7109375 193 92.375 C188.31747179 93.56547327 184.12239458 95.13258707 179.77734375 97.23046875 C178 98 178 98 176 98 C176 98.66 176 99.32 176 100 C174.96875 100.70125 173.9375 101.4025 172.875 102.125 C165.93281307 106.9494693 162.63918275 113.07527166 160.01171875 120.96875 C158.86029413 124.41857821 157.56562802 127.79708605 156.25 131.1875 C155.82203125 132.29480469 155.3940625 133.40210938 154.953125 134.54296875 C154.63859375 135.35378906 154.3240625 136.16460937 154 137 C153.34 137 152.68 137 152 137 C151.731875 137.7425 151.46375 138.485 151.1875 139.25 C150.05770579 141.86636554 148.79106798 143.80187111 147 146 C147.495 146.45375 147.99 146.9075 148.5 147.375 C150 149 150 149 150 151 C150.66 151 151.32 151 152 151 C152 151.66 152 152.32 152 153 C152.66 153 153.32 153 154 153 C157.17451005 156.52978012 160.04338783 160.28311613 163 164 C163 157.73 163 151.46 163 145 C162.01 144.67 161.02 144.34 160 144 C160.33 143.01 160.66 142.02 161 141 C164.3 141 167.6 141 171 141 C171 141.99 171 142.98 171 144 C170.34 144.33 169.68 144.66 169 145 C167.92044788 148.23865635 167.79558259 150.79155838 167.68359375 154.19921875 C167.64169922 155.40771484 167.59980469 156.61621094 167.55664062 157.86132812 C167.51732422 159.12396484 167.47800781 160.38660156 167.4375 161.6875 C167.37272461 163.59885742 167.37272461 163.59885742 167.30664062 165.54882812 C167.2004514 168.69910852 167.09840467 171.84946839 167 175 C162.2265625 174.2421875 162.2265625 174.2421875 160.1875 172.0625 C159 170 159 170 159 168 C158.34 168 157.68 168 157 168 C153 163.52941176 153 163.52941176 153 161 C152.40703125 160.74476563 151.8140625 160.48953125 151.203125 160.2265625 C148.78775462 158.88183502 147.48788294 157.50785633 145.75 155.375 C145.22921875 154.74335938 144.7084375 154.11171875 144.171875 153.4609375 C143.78515625 152.97882813 143.3984375 152.49671875 143 152 C142.97088679 155.0833134 142.95316318 158.16659125 142.9375 161.25 C142.92912109 162.12269531 142.92074219 162.99539062 142.91210938 163.89453125 C142.90888672 164.73886719 142.90566406 165.58320313 142.90234375 166.453125 C142.89710693 167.22817383 142.89187012 168.00322266 142.88647461 168.80175781 C142.94646443 171.33036135 142.94646443 171.33036135 144 175 C141.03 175 138.06 175 135 175 C135 174.01 135 173.02 135 172 C135.66 171.67 136.32 171.34 137 171 C138.27809679 165.48971479 138.10224037 159.6232203 138 154 C137.34 154 136.68 154 136 154 C136 154.66 136 155.32 136 156 C134.3203125 157.7265625 134.3203125 157.7265625 132.125 159.625 C131.40570313 160.25664062 130.68640625 160.88828125 129.9453125 161.5390625 C128 163 128 163 126 163 C126.14168137 164.43791516 126.28851043 165.8753237 126.4375 167.3125 C126.51871094 168.11300781 126.59992188 168.91351563 126.68359375 169.73828125 C126.95265693 172.16087179 126.95265693 172.16087179 128 175 C123 175 118 175 113 175 C110.71923274 175.95529519 108.48913363 176.95505241 106.25 178 C99.17287668 181.20658572 91.96473974 183.89391239 84.625 186.4375 C83.09987793 186.96827148 83.09987793 186.96827148 81.54394531 187.50976562 C74.27295405 190 74.27295405 190 72 190 C72.44730469 191.07636719 72.89460938 192.15273438 73.35546875 193.26171875 C76.1653342 200.04331849 78.96241639 206.82191974 81.5625 213.6875 C83.3662625 218.39633215 85.20331255 223.08813961 87.125 227.75 C87.60195312 228.92046875 88.07890625 230.0909375 88.5703125 231.296875 C89.76291283 234.30472868 89.76291283 234.30472868 93 235 C93 235.99 93 236.98 93 238 C87.72 238 82.44 238 77 238 C77 235 77 235 79 233 C78.01 230.03 77.02 227.06 76 224 C70.72 223.67 65.44 223.34 60 223 C59.01 226.96 58.02 230.92 57 235 C57.66 235 58.32 235 59 235 C59 235.99 59 236.98 59 238 C55.04 238 51.08 238 47 238 C47 237.01 47 236.02 47 235 C47.60593994 234.78641846 48.21187988 234.57283691 48.83618164 234.3527832 C51.81681876 232.48933852 52.34300539 230.60633001 53.62109375 227.35546875 C54.08193359 226.20240234 54.54277344 225.04933594 55.01757812 223.86132812 C55.48615234 222.64896484 55.95472656 221.43660156 56.4375 220.1875 C57.13456055 218.43276367 57.13456055 218.43276367 57.84570312 216.64257812 C60.95658561 208.78510506 63.97723343 200.89172952 67 193 C66.35039307 193.31751221 65.70078613 193.63502441 65.03149414 193.9621582 C62.04459901 195.41803393 59.05361065 196.86530613 56.0625 198.3125 C55.04091797 198.81201172 54.01933594 199.31152344 52.96679688 199.82617188 C38.09654387 207 38.09654387 207 32 207 C32.2475 207.928125 32.2475 207.928125 32.5 208.875 C33.20075317 213.25470729 33.07734251 217.57428989 33 222 C32.01 222 31.02 222 30 222 C29.34 220.35 28.68 218.7 28 217 C24.37 217 20.74 217 17 217 C16.97290556 219.08326131 16.95356127 221.16662441 16.9375 223.25 C16.92589844 224.41015625 16.91429687 225.5703125 16.90234375 226.765625 C16.98217908 229.40977128 17.21356222 231.49826091 18 234 C23.07081218 234.36076925 26.87602359 234.5619882 31.5 232.25 C33.78251966 230.19573231 34.97893505 228.85898185 36 226 C37.32 226 38.64 226 40 226 C39.69106068 227.6256807 39.3777305 229.25052748 39.0625 230.875 C38.88847656 231.77992188 38.71445313 232.68484375 38.53515625 233.6171875 C38 236 38 236 37 238 C26.77 238 16.54 238 6 238 C7 234 7 234 7.55639648 232.04785156 C8.06043037 229.72102921 8.11291324 227.61446566 8.09765625 225.234375 C8.09282227 223.90019531 8.09282227 223.90019531 8.08789062 222.5390625 C8.07951172 221.61867188 8.07113281 220.69828125 8.0625 219.75 C8.05798828 218.81414062 8.05347656 217.87828125 8.04882812 216.9140625 C8.03706918 214.60930959 8.02063426 212.30468773 8 210 C6.83984375 209.85304688 6.83984375 209.85304688 5.65625 209.703125 C-1.00030838 208.74748048 -6.2249305 207.48683441 -12 204 C-12.33 203.34 -12.66 202.68 -13 202 C-12.42967041 201.85377197 -11.85934082 201.70754395 -11.27172852 201.55688477 C-8.70105211 200.89565885 -6.13177426 200.22915229 -3.5625 199.5625 C-2.21575195 199.21735352 -2.21575195 199.21735352 -0.84179688 198.86523438 C0.01220703 198.64287109 0.86621094 198.42050781 1.74609375 198.19140625 C2.53685303 197.98717041 3.3276123 197.78293457 4.14233398 197.57250977 C5.9961588 197.15967047 5.9961588 197.15967047 7 196 C6.34 195.67 5.68 195.34 5 195 C5 194.01 5 193.02 5 192 C5.87398437 192.01740234 5.87398437 192.01740234 6.765625 192.03515625 C19.40633894 192.1742836 29.09467263 191.20399884 40.078125 184.71484375 C43 183 43 183 45 183 C45 182.34 45 181.68 45 181 C45.66 181 46.32 181 47 181 C47.4640625 180.071875 47.4640625 180.071875 47.9375 179.125 C48.625 177.75 49.3125 176.375 50 175 C49.01 175 48.02 175 47 175 C47 174.34 47 173.68 47 173 C47.94746094 172.86271484 47.94746094 172.86271484 48.9140625 172.72265625 C49.60242188 172.48417969 50.29078125 172.24570313 51 172 C52.34868382 168.65419723 52.34868382 168.65419723 53.0859375 166.00390625 C54.23408995 162.23070439 55.60677615 158.56342166 57 154.875 C57.24927246 154.20654053 57.49854492 153.53808105 57.75537109 152.84936523 C59.3853959 148.51029264 61.1461864 144.24832283 63 140 C61.89140625 139.39671875 60.7828125 138.7934375 59.640625 138.171875 C58.17688567 137.36494178 56.71335492 136.55763014 55.25 135.75 C54.52039063 135.35425781 53.79078125 134.95851562 53.0390625 134.55078125 C45.60581985 130.42871032 45.60581985 130.42871032 43 127 C43 125.68 43 124.36 43 123 C44.98 122.505 44.98 122.505 47 122 C45.69675781 121.52820313 45.69675781 121.52820313 44.3671875 121.046875 C32.30588564 116.56773382 32.30588564 116.56773382 28 113 C28 112.34 28 111.68 28 111 C27.34 111 26.68 111 26 111 C26 110.34 26 109.68 26 109 C25.34 109 24.68 109 24 109 C20.88549618 104.84732824 20.88549618 104.84732824 21.3125 101.6875 C21.539375 101.130625 21.76625 100.57375 22 100 C24.64 100.33 27.28 100.66 30 101 C29.46632812 100.74347656 28.93265625 100.48695313 28.3828125 100.22265625 C20.03676533 95.93411644 11.21299368 89.609161 7 81 C6.43431547 78.29947125 6.19074221 75.76576209 6 73 C9.85025879 73.60355408 12.86101159 74.76772603 16.3125 76.5625 C17.19550781 77.01753906 18.07851562 77.47257812 18.98828125 77.94140625 C19.65214844 78.29074219 20.31601563 78.64007813 21 79 C21 78.34 21 77.68 21 77 C20.2575 76.731875 19.515 76.46375 18.75 76.1875 C16.10938051 75.04723249 14.14447156 73.90619694 12 72 C12 71.34 12 70.68 12 70 C11.34 70 10.68 70 10 70 C8.42764279 67.98905359 6.98446769 65.98842532 5.5625 63.875 C4.96985352 63.02035156 4.96985352 63.02035156 4.36523438 62.1484375 C-1.15110811 54.07126381 -3.16450784 47.70596246 -3 38 C1 38 1 38 3.75 40.375 C6 43 6 43 6 45 C6.66 45 7.32 45 8 45 C8 45.66 8 46.32 8 47 C8.66 47 9.32 47 10 47 C10 47.66 10 48.32 10 49 C10.99 49 11.98 49 13 49 C12.54109375 48.24976563 12.0821875 47.49953125 11.609375 46.7265625 C3.84326214 33.77216416 -4.06291486 17.31903887 -0.484375 1.7578125 C-0.32453125 1.17773438 -0.1646875 0.59765625 0 0 Z M62 151 C63 153 63 153 63 153 Z M68 202 C67.18667257 204.10384698 66.37436583 206.20808857 65.5625 208.3125 C65.11003906 209.48425781 64.65757812 210.65601563 64.19140625 211.86328125 C63.42015245 213.89382815 62.68687358 215.93937926 62 218 C66.29 218 70.58 218 75 218 C74.401875 216.1025 73.80375 214.205 73.1875 212.25 C72.85105469 211.18265625 72.51460937 210.1153125 72.16796875 209.015625 C71.08117623 206.20959213 69.93147463 204.28013624 68 202 Z M27 208 C23.37 208.66 19.74 209.32 16 210 C16 210.99 16 211.98 16 213 C22.31268603 213.37552165 22.31268603 213.37552165 28 211 C27.67 210.01 27.34 209.02 27 208 Z " fill="#455F69" transform="translate(160,76)"/>
<path d="M0 0 C1.51400391 0.01740234 1.51400391 0.01740234 3.05859375 0.03515625 C4.07050781 0.04417969 5.08242187 0.05320313 6.125 0.0625 C6.90746094 0.07410156 7.68992187 0.08570313 8.49609375 0.09765625 C10.01430068 3.65408586 10.71818165 6.21111798 10.49609375 10.09765625 C9.83609375 10.09765625 9.17609375 10.09765625 8.49609375 10.09765625 C8.49609375 10.75765625 8.49609375 11.41765625 8.49609375 12.09765625 C12.12609375 12.09765625 15.75609375 12.09765625 19.49609375 12.09765625 C19.16609375 13.08765625 18.83609375 14.07765625 18.49609375 15.09765625 C18.66109375 15.92265625 18.82609375 16.74765625 18.99609375 17.59765625 C19.49609375 20.09765625 19.49609375 20.09765625 18.49609375 23.09765625 C19.15609375 23.42765625 19.81609375 23.75765625 20.49609375 24.09765625 C15.54609375 25.58265625 15.54609375 25.58265625 10.49609375 27.09765625 C10.94339844 28.17402344 11.39070313 29.25039063 11.8515625 30.359375 C14.66142795 37.14097474 17.45851014 43.91957599 20.05859375 50.78515625 C21.86235625 55.4939884 23.6994063 60.18579586 25.62109375 64.84765625 C26.09804687 66.018125 26.575 67.18859375 27.06640625 68.39453125 C28.25900658 71.40238493 28.25900658 71.40238493 31.49609375 72.09765625 C31.49609375 73.08765625 31.49609375 74.07765625 31.49609375 75.09765625 C26.21609375 75.09765625 20.93609375 75.09765625 15.49609375 75.09765625 C15.49609375 72.09765625 15.49609375 72.09765625 17.49609375 70.09765625 C16.50609375 67.12765625 15.51609375 64.15765625 14.49609375 61.09765625 C9.21609375 60.76765625 3.93609375 60.43765625 -1.50390625 60.09765625 C-2.49390625 64.05765625 -3.48390625 68.01765625 -4.50390625 72.09765625 C-3.84390625 72.09765625 -3.18390625 72.09765625 -2.50390625 72.09765625 C-2.50390625 73.08765625 -2.50390625 74.07765625 -2.50390625 75.09765625 C-6.46390625 75.09765625 -10.42390625 75.09765625 -14.50390625 75.09765625 C-14.50390625 74.10765625 -14.50390625 73.11765625 -14.50390625 72.09765625 C-13.89796631 71.88407471 -13.29202637 71.67049316 -12.66772461 71.45043945 C-9.68708749 69.58699477 -9.16090086 67.70398626 -7.8828125 64.453125 C-7.42197266 63.30005859 -6.96113281 62.14699219 -6.48632812 60.95898438 C-6.01775391 59.74662109 -5.54917969 58.53425781 -5.06640625 57.28515625 C-4.60169922 56.11533203 -4.13699219 54.94550781 -3.65820312 53.74023438 C-0.54732064 45.88276131 2.47332718 37.98938577 5.49609375 30.09765625 C4.84648682 30.41516846 4.19687988 30.73268066 3.52758789 31.05981445 C0.54069276 32.51569018 -2.4502956 33.96296238 -5.44140625 35.41015625 C-6.46298828 35.90966797 -7.48457031 36.40917969 -8.53710938 36.92382812 C-23.40736238 44.09765625 -23.40736238 44.09765625 -29.50390625 44.09765625 C-29.25640625 45.02578125 -29.25640625 45.02578125 -29.00390625 45.97265625 C-28.30315308 50.35236354 -28.42656374 54.67194614 -28.50390625 59.09765625 C-29.49390625 59.09765625 -30.48390625 59.09765625 -31.50390625 59.09765625 C-32.16390625 57.44765625 -32.82390625 55.79765625 -33.50390625 54.09765625 C-37.13390625 54.09765625 -40.76390625 54.09765625 -44.50390625 54.09765625 C-44.53100069 56.18091756 -44.55034498 58.26428066 -44.56640625 60.34765625 C-44.57800781 61.5078125 -44.58960938 62.66796875 -44.6015625 63.86328125 C-44.52172717 66.50742753 -44.29034403 68.59591716 -43.50390625 71.09765625 C-38.43309407 71.4584255 -34.62788266 71.65964445 -30.00390625 69.34765625 C-27.72138659 67.29338856 -26.5249712 65.9566381 -25.50390625 63.09765625 C-24.18390625 63.09765625 -22.86390625 63.09765625 -21.50390625 63.09765625 C-21.81284557 64.72333695 -22.12617575 66.34818373 -22.44140625 67.97265625 C-22.61542969 68.87757813 -22.78945312 69.7825 -22.96875 70.71484375 C-23.50390625 73.09765625 -23.50390625 73.09765625 -24.50390625 75.09765625 C-34.73390625 75.09765625 -44.96390625 75.09765625 -55.50390625 75.09765625 C-54.50390625 71.09765625 -54.50390625 71.09765625 -53.94750977 69.14550781 C-53.44347588 66.81868546 -53.39099301 64.71212191 -53.40625 62.33203125 C-53.41108398 60.99785156 -53.41108398 60.99785156 -53.41601562 59.63671875 C-53.42439453 58.71632813 -53.43277344 57.7959375 -53.44140625 56.84765625 C-53.44591797 55.91179687 -53.45042969 54.9759375 -53.45507812 54.01171875 C-53.46683707 51.70696584 -53.48327199 49.40234398 -53.50390625 47.09765625 C-54.27734375 46.9996875 -55.05078125 46.90171875 -55.84765625 46.80078125 C-62.50421463 45.84513673 -67.72883675 44.58449066 -73.50390625 41.09765625 C-73.83390625 40.43765625 -74.16390625 39.77765625 -74.50390625 39.09765625 C-73.93357666 38.95142822 -73.36324707 38.8052002 -72.77563477 38.65454102 C-70.20495836 37.9933151 -67.63568051 37.32680854 -65.06640625 36.66015625 C-64.16857422 36.43005859 -63.27074219 36.19996094 -62.34570312 35.96289062 C-61.49169922 35.74052734 -60.63769531 35.51816406 -59.7578125 35.2890625 C-58.96705322 35.08482666 -58.17629395 34.88059082 -57.36157227 34.67016602 C-55.50774745 34.25732672 -55.50774745 34.25732672 -54.50390625 33.09765625 C-55.16390625 32.76765625 -55.82390625 32.43765625 -56.50390625 32.09765625 C-56.50390625 31.10765625 -56.50390625 30.11765625 -56.50390625 29.09765625 C-55.92125 29.10925781 -55.33859375 29.12085938 -54.73828125 29.1328125 C-42.09756731 29.27193985 -32.40923362 28.30165509 -21.42578125 21.8125 C-18.50390625 20.09765625 -18.50390625 20.09765625 -16.50390625 20.09765625 C-16.50390625 19.43765625 -16.50390625 18.77765625 -16.50390625 18.09765625 C-15.84390625 18.09765625 -15.18390625 18.09765625 -14.50390625 18.09765625 C-14.21515625 17.47890625 -13.92640625 16.86015625 -13.62890625 16.22265625 C-12.50390625 14.09765625 -12.50390625 14.09765625 -10.50390625 12.09765625 C-6.87890625 11.97265625 -6.87890625 11.97265625 -3.50390625 12.09765625 C-3.50390625 11.43765625 -3.50390625 10.77765625 -3.50390625 10.09765625 C-4.49390625 10.09765625 -5.48390625 10.09765625 -6.50390625 10.09765625 C-6.02840064 8.61730861 -5.54839409 7.13840604 -5.06640625 5.66015625 C-4.79957031 4.83644531 -4.53273438 4.01273438 -4.2578125 3.1640625 C-3.14823528 0.12278609 -3.14823528 0.12278609 0 0 Z M6.49609375 39.09765625 C5.68276632 41.20150323 4.87045958 43.30574482 4.05859375 45.41015625 C3.60613281 46.58191406 3.15367187 47.75367188 2.6875 48.9609375 C1.9162462 50.9914844 1.18296733 53.03703551 0.49609375 55.09765625 C4.78609375 55.09765625 9.07609375 55.09765625 13.49609375 55.09765625 C12.89796875 53.20015625 12.29984375 51.30265625 11.68359375 49.34765625 C11.34714844 48.2803125 11.01070312 47.21296875 10.6640625 46.11328125 C9.57726998 43.30724838 8.42756838 41.37779249 6.49609375 39.09765625 Z M-34.50390625 45.09765625 C-38.13390625 45.75765625 -41.76390625 46.41765625 -45.50390625 47.09765625 C-45.50390625 48.08765625 -45.50390625 49.07765625 -45.50390625 50.09765625 C-39.19122022 50.4731779 -39.19122022 50.4731779 -33.50390625 48.09765625 C-33.83390625 47.10765625 -34.16390625 46.11765625 -34.50390625 45.09765625 Z " fill="#476069" transform="translate(221.50390625,238.90234375)"/>
<path d="M0 0 C3.2101542 3.29040805 4.87207413 5.669571 5.3125 10.25 C4.87384657 15.51384111 2.78782871 18.42250408 -1.125 21.875 C-3 23 -3 23 -5 23 C-4.50628906 23.75925781 -4.01257813 24.51851563 -3.50390625 25.30078125 C-2.54291016 26.79158203 -2.54291016 26.79158203 -1.5625 28.3125 C-0.60537109 29.79169922 -0.60537109 29.79169922 0.37109375 31.30078125 C2 34 2 34 3 37 C3.66 37 4.32 37 5 37 C5 37.66 5 38.32 5 39 C5.66 39 6.32 39 7 39 C7 39.66 7 40.32 7 41 C8.32 41 9.64 41 11 41 C11 41.99 11 42.98 11 44 C2.03715898 44.78316087 2.03715898 44.78316087 -2.0625 41.6875 C-4 39 -4 39 -5 36 C-5.66 36 -6.32 36 -7 36 C-7.30292969 35.36191406 -7.60585938 34.72382813 -7.91796875 34.06640625 C-8.33691406 33.24011719 -8.75585938 32.41382813 -9.1875 31.5625 C-9.59355469 30.73878906 -9.99960937 29.91507812 -10.41796875 29.06640625 C-12.09128982 26.41027985 -12.09128982 26.41027985 -17 26 C-16.67 30.62 -16.34 35.24 -16 40 C-15.01 40.33 -14.02 40.66 -13 41 C-13 41.99 -13 42.98 -13 44 C-18.28 44 -23.56 44 -29 44 C-29 43.01 -29 42.02 -29 41 C-28.01 40.505 -28.01 40.505 -27 40 C-26.67 27.13 -26.34 14.26 -26 1 C-26.99 1 -27.98 1 -29 1 C-29 0.01 -29 -0.98 -29 -2 C-8.5571448 -4.43574445 -8.5571448 -4.43574445 0 0 Z M-17 1 C-17 7.93 -17 14.86 -17 22 C-10.80505708 22 -9.59011959 21.6512315 -5 18 C-2.48749417 14.23124125 -2.46983914 12.46849866 -3 8 C-4.78152067 5.02638372 -6.85307225 2.57346388 -10 1 C-12.31 1 -14.62 1 -17 1 Z " fill="#ABB1AC" transform="translate(290,270)"/>
<path d="M0 0 C0.495 4.95 0.495 4.95 1 10 C0.01 10 -0.98 10 -2 10 C-3.03789581 8.35666496 -4.03567924 6.68756133 -5 5 C-9.48418393 2.01054405 -13.65341189 2.37740622 -19 2 C-19 6.95 -19 11.9 -19 17 C-17.35 17 -15.7 17 -14 17 C-14 17.33 -14 17.66 -14 18 C-15.65 18 -17.3 18 -19 18 C-19 18.99 -19 19.98 -19 21 C-15.04 20.34 -11.08 19.68 -7 19 C-6.67 17.68 -6.34 16.36 -6 15 C-5.01 15 -4.02 15 -3 15 C-1.67713754 19.96073422 -1.91106803 24.91111512 -2 30 C-2.99 30 -3.98 30 -5 30 C-5.66 28.35 -6.32 26.7 -7 25 C-10.63 25 -14.26 25 -18 25 C-18.02709444 27.08326131 -18.04643873 29.16662441 -18.0625 31.25 C-18.07410156 32.41015625 -18.08570313 33.5703125 -18.09765625 34.765625 C-18.01782092 37.40977128 -17.78643778 39.49826091 -17 42 C-11.92918782 42.36076925 -8.12397641 42.5619882 -3.5 40.25 C-1.21748034 38.19573231 -0.02106495 36.85898185 1 34 C2.32 34 3.64 34 5 34 C4.69106068 35.6256807 4.3777305 37.25052748 4.0625 38.875 C3.88847656 39.77992188 3.71445313 40.68484375 3.53515625 41.6171875 C3 44 3 44 2 46 C-8.23 46 -18.46 46 -29 46 C-28 42 -28 42 -27.44360352 40.04785156 C-26.93956963 37.72102921 -26.88708676 35.61446566 -26.90234375 33.234375 C-26.90717773 31.90019531 -26.90717773 31.90019531 -26.91210938 30.5390625 C-26.92048828 29.61867188 -26.92886719 28.69828125 -26.9375 27.75 C-26.94201172 26.81414062 -26.94652344 25.87828125 -26.95117188 24.9140625 C-26.96293082 22.60930959 -26.97936574 20.30468773 -27 18 C-27.7734375 17.90203125 -28.546875 17.8040625 -29.34375 17.703125 C-36.00030838 16.74748048 -41.2249305 15.48683441 -47 12 C-47.33 11.34 -47.66 10.68 -48 10 C-47.42967041 9.85377197 -46.85934082 9.70754395 -46.27172852 9.55688477 C-43.70105211 8.89565885 -41.13177426 8.22915229 -38.5625 7.5625 C-37.66466797 7.33240234 -36.76683594 7.10230469 -35.84179688 6.86523438 C-34.98779297 6.64287109 -34.13378906 6.42050781 -33.25390625 6.19140625 C-32.06776733 5.88505249 -32.06776733 5.88505249 -30.85766602 5.57250977 C-29.0038412 5.15967047 -29.0038412 5.15967047 -28 4 C-28.66 3.67 -29.32 3.34 -30 3 C-30 2.01 -30 1.02 -30 0 C-26.50055963 -0.19907807 -23.0004507 -0.38213327 -19.5 -0.5625 C-18.02660156 -0.64661133 -18.02660156 -0.64661133 -16.5234375 -0.73242188 C-10.85313239 -1.01593713 -5.60805516 -0.90129458 0 0 Z " fill="#A7ADA8" transform="translate(195,268)"/>
<path d="M0 0 C6.67213766 16.05543212 6.67213766 16.05543212 9.5625 23.6875 C11.3662625 28.39633215 13.20331255 33.08813961 15.125 37.75 C15.60195312 38.92046875 16.07890625 40.0909375 16.5703125 41.296875 C17.76291283 44.30472868 17.76291283 44.30472868 21 45 C21 45.99 21 46.98 21 48 C15.72 48 10.44 48 5 48 C5 45 5 45 7 43 C5.515 38.545 5.515 38.545 4 34 C-1.28 33.67 -6.56 33.34 -12 33 C-12.99 36.96 -13.98 40.92 -15 45 C-14.34 45 -13.68 45 -13 45 C-13 45.99 -13 46.98 -13 48 C-16.96 48 -20.92 48 -25 48 C-25 47.01 -25 46.02 -25 45 C-24.39406006 44.78641846 -23.78812012 44.57283691 -23.16381836 44.3527832 C-20.18318124 42.48933852 -19.65699461 40.60633001 -18.37890625 37.35546875 C-17.91806641 36.20240234 -17.45722656 35.04933594 -16.98242188 33.86132812 C-16.51384766 32.64896484 -16.04527344 31.43660156 -15.5625 30.1875 C-14.86543945 28.43276367 -14.86543945 28.43276367 -14.15429688 26.64257812 C-11.04341439 18.78510506 -8.02276657 10.89172952 -5 3 C-5.66 2.67 -6.32 2.34 -7 2 C-4.35261084 0.5393715 -3.10551666 0 0 0 Z M-4 12 C-4.81332743 14.10384698 -5.62563417 16.20808857 -6.4375 18.3125 C-6.88996094 19.48425781 -7.34242188 20.65601563 -7.80859375 21.86328125 C-8.57984755 23.89382815 -9.31312642 25.93937926 -10 28 C-5.71 28 -1.42 28 3 28 C2.401875 26.1025 1.80375 24.205 1.1875 22.25 C0.85105469 21.18265625 0.51460937 20.1153125 0.16796875 19.015625 C-0.91882377 16.20959213 -2.06852537 14.28013624 -4 12 Z " fill="#B0B6B1" transform="translate(232,266)"/>
<path d="M0 0 C2.5625 1.375 2.5625 1.375 3.9375 4.125 C4.54915713 7.30561706 4.71628444 10.14552676 4.5625 13.375 C3.5725 13.375 2.5825 13.375 1.5625 13.375 C0.421875 11.66015625 0.421875 11.66015625 -0.6875 9.4375 C-2.67660058 6.05842552 -3.034422 5.51175861 -6.9375 4.1875 C-10.80451221 4.39466137 -12.53935234 4.81781089 -15.4375 7.375 C-16.36569052 9.9606736 -16.46813099 11.8389577 -16.3125 14.5625 C-15.02134137 17.23704287 -13.18314096 17.34206177 -10.4375 18.375 C-8.40456007 19.28594943 -6.38400151 20.22490635 -4.375 21.1875 C-3.35277344 21.66832031 -2.33054687 22.14914062 -1.27734375 22.64453125 C2.4036236 24.88754161 4.64071472 27.53142944 6.5625 31.375 C6.82035684 35.93047083 6.56101462 39.2530636 4.5625 43.375 C3.9025 43.375 3.2425 43.375 2.5625 43.375 C2.5625 44.035 2.5625 44.695 2.5625 45.375 C-4.94282051 49.26664767 -10.50178426 50.79302169 -18.8125 48.1875 C-21.48702515 47.0600041 -22.2864943 46.60150856 -23.9375 44.125 C-24.5372788 40.8262166 -24.56869204 37.72039692 -24.4375 34.375 C-23.4475 34.375 -22.4575 34.375 -21.4375 34.375 C-19.4375 37.375 -19.4375 37.375 -19.4375 40.375 C-18.7775 40.375 -18.1175 40.375 -17.4375 40.375 C-17.4375 41.035 -17.4375 41.695 -17.4375 42.375 C-15.8551994 42.71320166 -14.27160625 43.04535939 -12.6875 43.375 C-11.36492187 43.6534375 -11.36492187 43.6534375 -10.015625 43.9375 C-7.21606035 44.48653675 -7.21606035 44.48653675 -3.4375 44.375 C-3.4375 43.715 -3.4375 43.055 -3.4375 42.375 C-2.7775 42.375 -2.1175 42.375 -1.4375 42.375 C-1.32865881 40.96006449 -1.25152383 39.54267057 -1.1875 38.125 C-1.14109375 37.33609375 -1.0946875 36.5471875 -1.046875 35.734375 C-1.59201967 32.4417012 -2.83882847 31.42204639 -5.4375 29.375 C-8.2867633 28.01488477 -8.2867633 28.01488477 -11.375 26.9375 C-19.74878997 23.54713626 -19.74878997 23.54713626 -22.4375 19.375 C-23.68089978 14.65483267 -23.80763003 10.70746811 -22.5 6 C-16.65393924 -1.44044096 -8.68244572 -1.5786265 0 0 Z " fill="#ADB2AD" transform="translate(331.4375,266.625)"/>
<path d="M0 0 C3.96 0 7.92 0 12 0 C11.67 1.32 11.34 2.64 11 4 C10.93375493 5.74886981 10.91447405 7.50002748 10.9375 9.25 C10.958125 10.8175 10.97875 12.385 11 14 C15.95 14.33 20.9 14.66 26 15 C26 11.04 26 7.08 26 3 C25.34 3 24.68 3 24 3 C24.33 2.01 24.66 1.02 25 0 C28.63 0 32.26 0 36 0 C36 0.99 36 1.98 36 3 C35.34 3 34.68 3 34 3 C33.80286655 6.74955875 33.6189684 10.49965304 33.4375 14.25 C33.38142578 15.31347656 33.32535156 16.37695312 33.26757812 17.47265625 C33.21923828 18.49746094 33.17089844 19.52226562 33.12109375 20.578125 C33.0739624 21.52075195 33.02683105 22.46337891 32.97827148 23.43457031 C32.99874957 25.85236548 33.16820929 27.73352279 34 30 C34.66 30.33 35.32 30.66 36 31 C36 31.99 36 32.98 36 34 C32.04 34 28.08 34 24 34 C24.33 33.01 24.66 32.02 25 31 C25.22451458 28.77425665 25.40782878 26.54418481 25.5625 24.3125 C25.706875 22.229375 25.85125 20.14625 26 18 C20.72 18 15.44 18 10 18 C10 22.29 10 26.58 10 31 C11.32 31.33 12.64 31.66 14 32 C14 32.66 14 33.32 14 34 C9.38 34 4.76 34 0 34 C0 33.01 0 32.02 0 31 C0.66 30.67 1.32 30.34 2 30 C2 21.42 2 12.84 2 4 C1.34 3.67 0.68 3.34 0 3 C0 2.01 0 1.02 0 0 Z " fill="#A4AAA4" transform="translate(136,217)"/>
<path d="M0 0 C3.3 0 6.6 0 10 0 C10 0.99 10 1.98 10 3 C9.34 3.33 8.68 3.66 8 4 C6.92044788 7.23865635 6.79558259 9.79155838 6.68359375 13.19921875 C6.62075195 15.01196289 6.62075195 15.01196289 6.55664062 16.86132812 C6.51732422 18.12396484 6.47800781 19.38660156 6.4375 20.6875 C6.37272461 22.59885742 6.37272461 22.59885742 6.30664062 24.54882812 C6.2004514 27.69910852 6.09840467 30.84946839 6 34 C1.2265625 33.2421875 1.2265625 33.2421875 -0.8125 31.0625 C-2 29 -2 29 -2 27 C-2.66 27 -3.32 27 -4 27 C-8 22.52941176 -8 22.52941176 -8 20 C-8.88945312 19.61714844 -8.88945312 19.61714844 -9.796875 19.2265625 C-12.21224538 17.88183502 -13.51211706 16.50785633 -15.25 14.375 C-15.77078125 13.74335938 -16.2915625 13.11171875 -16.828125 12.4609375 C-17.21484375 11.97882813 -17.6015625 11.49671875 -18 11 C-18.02911321 14.0833134 -18.04683682 17.16659125 -18.0625 20.25 C-18.07087891 21.12269531 -18.07925781 21.99539062 -18.08789062 22.89453125 C-18.09111328 23.73886719 -18.09433594 24.58320313 -18.09765625 25.453125 C-18.10289307 26.22817383 -18.10812988 27.00322266 -18.11352539 27.80175781 C-18.05353557 30.33036135 -18.05353557 30.33036135 -17 34 C-19.97 34 -22.94 34 -26 34 C-26 33.01 -26 32.02 -26 31 C-25.34 30.67 -24.68 30.34 -24 30 C-22.61417795 24.60131933 -23.01137281 19.19828709 -23.84375 13.75 C-23.8953125 13.1725 -23.946875 12.595 -24 12 C-23.67 11.67 -23.34 11.34 -23 11 C-22.49389093 6.2045846 -22.49389093 6.2045846 -24.5 2.0625 C-24.995 1.711875 -25.49 1.36125 -26 1 C-23.36 1 -20.72 1 -18 1 C-17.67 1.99 -17.34 2.98 -17 4 C-16.360625 4.309375 -15.72125 4.61875 -15.0625 4.9375 C-12.54531085 6.2342338 -12.03113052 7.4221737 -11 10 C-10.34 10 -9.68 10 -9 10 C-9 10.66 -9 11.32 -9 12 C-8.34 12 -7.68 12 -7 12 C-3.82548995 15.52978012 -0.95661217 19.28311613 2 23 C2 16.73 2 10.46 2 4 C1.01 3.67 0.02 3.34 -1 3 C-0.67 2.01 -0.34 1.02 0 0 Z " fill="#AEB4B1" transform="translate(321,217)"/>
<path d="M0 0 C1.60725635 3.21451269 1.05748185 6.43612536 1 10 C0.01 10 -0.98 10 -2 10 C-2.4125 9.05125 -2.825 8.1025 -3.25 7.125 C-4.72315321 4.04957237 -4.72315321 4.04957237 -6.75 2.5625 C-10.18556555 1.70360861 -12.58484621 2.10127532 -16 3 C-19.4521272 5.92680349 -21.81933266 8.02154451 -22.23828125 12.609375 C-22.46233423 21.13184594 -22.46233423 21.13184594 -18 28 C-15.88807971 29.73479167 -14.6816032 30.03801249 -11.96875 29.88671875 C-9.97118041 29.65108994 -7.98405118 29.3306752 -6 29 C-5.9071875 27.081875 -5.9071875 27.081875 -5.8125 25.125 C-5.77769531 24.40570313 -5.74289062 23.68640625 -5.70703125 22.9453125 C-5.80371094 22.30335938 -5.90039062 21.66140625 -6 21 C-6.99 20.34 -7.98 19.68 -9 19 C-9 18.34 -9 17.68 -9 17 C-5.04 17 -1.08 17 3 17 C2.33732364 28.46430098 2.33732364 28.46430098 -0.52734375 31.75390625 C-5.82740072 34.69115664 -12.1166845 35.00050569 -18 34 C-22.58000762 32.09417446 -26.51561137 29.38421522 -29 25 C-30.71122156 19.86633533 -31.11041597 13.82695419 -29.10546875 8.72265625 C-28 6.8125 -28 6.8125 -26 4 C-25.34 4 -24.68 4 -24 4 C-24 3.34 -24 2.68 -24 2 C-15.90737705 -2.28545518 -8.66834368 -3.90075466 0 0 Z " fill="#ACB1AB" transform="translate(365,218)"/>
<path d="M0 0 C7.59 0 15.18 0 23 0 C24.88343932 3.76687864 25.22057835 5.02958963 25 9 C24.01 9 23.02 9 22 9 C21.67 7.68 21.34 6.36 21 5 C17.37 4.34 13.74 3.68 10 3 C10 6.96 10 10.92 10 15 C13.43230448 14.73606499 13.43230448 14.73606499 17 14 C17.66 13.01 18.32 12.02 19 11 C19.99 11 20.98 11 22 11 C22 14.63 22 18.26 22 22 C20.68 21.34 19.36 20.68 18 20 C15.33646245 19.48479018 12.70500869 19.27050087 10 19 C10 22.96 10 26.92 10 31 C17.00483719 31.07377387 17.00483719 31.07377387 22.4375 27.4375 C22.953125 26.633125 23.46875 25.82875 24 25 C24.99 25 25.98 25 27 25 C26.125 31.75 26.125 31.75 25 34 C17.22908509 35.94696125 8.85715374 34.73590057 1 34 C1 33.01 1 32.02 1 31 C1.66 30.67 2.32 30.34 3 30 C3 21.42 3 12.84 3 4 C2.01 3.67 1.02 3.34 0 3 C0 2.01 0 1.02 0 0 Z " fill="#A2A8A2" transform="translate(177,217)"/>
<path d="M0 0 C3.38106113 2.25404075 3.47611495 2.70915401 4.43359375 6.43359375 C6.00048761 12.10809732 7.97051478 17.56279117 10.0625 23.0625 C10.41376953 24.01060547 10.76503906 24.95871094 11.12695312 25.93554688 C11.63838867 27.28422852 11.63838867 27.28422852 12.16015625 28.66015625 C12.46574463 29.47105713 12.77133301 30.28195801 13.08618164 31.11743164 C13.85079023 33.179291 13.85079023 33.179291 16 34 C16 34.66 16 35.32 16 36 C12.37 36 8.74 36 5 36 C5 35.34 5 34.68 5 34 C5.66 34 6.32 34 7 34 C6.34 30.7 5.68 27.4 5 24 C1.37 24.33 -2.26 24.66 -6 25 C-7.98 29.455 -7.98 29.455 -10 34 C-9.01 34 -8.02 34 -7 34 C-7 34.66 -7 35.32 -7 36 C-8.258125 36.185625 -9.51625 36.37125 -10.8125 36.5625 C-11.87404297 36.71912109 -11.87404297 36.71912109 -12.95703125 36.87890625 C-15 37 -15 37 -18 36 C-18 35.34 -18 34.68 -18 34 C-17.36835938 33.90847656 -16.73671875 33.81695312 -16.0859375 33.72265625 C-15.39757812 33.48417969 -14.70921875 33.24570313 -14 33 C-12.65131618 29.65419723 -12.65131618 29.65419723 -11.9140625 27.00390625 C-10.76591005 23.23070439 -9.39322385 19.56342166 -8 15.875 C-7.75072754 15.20654053 -7.50145508 14.53808105 -7.24462891 13.84936523 C-6.51005912 11.89396454 -5.76045786 9.94547185 -5 8 C-4.74089844 7.33516602 -4.48179687 6.67033203 -4.21484375 5.98535156 C-2.23990323 1.11995162 -2.23990323 1.11995162 0 0 Z M-3 12 C-2 14 -2 14 -2 14 Z " fill="#B3BFBF" transform="translate(225,215)"/>
<path d="M0 0 C0.495 4.95 0.495 4.95 1 10 C0.01 10 -0.98 10 -2 10 C-3.03789581 8.35666496 -4.03567924 6.68756133 -5 5 C-9.48418393 2.01054405 -13.65341189 2.37740622 -19 2 C-19 6.95 -19 11.9 -19 17 C-28.96085317 18.91554869 -38.31708274 17.24251608 -47 12 C-47.33 11.34 -47.66 10.68 -48 10 C-47.42967041 9.85377197 -46.85934082 9.70754395 -46.27172852 9.55688477 C-43.70105211 8.89565885 -41.13177426 8.22915229 -38.5625 7.5625 C-37.66466797 7.33240234 -36.76683594 7.10230469 -35.84179688 6.86523438 C-34.98779297 6.64287109 -34.13378906 6.42050781 -33.25390625 6.19140625 C-32.06776733 5.88505249 -32.06776733 5.88505249 -30.85766602 5.57250977 C-29.0038412 5.15967047 -29.0038412 5.15967047 -28 4 C-28.66 3.67 -29.32 3.34 -30 3 C-30 2.01 -30 1.02 -30 0 C-26.50055963 -0.19907807 -23.0004507 -0.38213327 -19.5 -0.5625 C-18.02660156 -0.64661133 -18.02660156 -0.64661133 -16.5234375 -0.73242188 C-10.85313239 -1.01593713 -5.60805516 -0.90129458 0 0 Z " fill="#A7B3B0" transform="translate(195,268)"/>
<path d="M0 0 C1.12981038 2.68556531 2.25393752 5.37328466 3.375 8.0625 C3.69210938 8.81466797 4.00921875 9.56683594 4.3359375 10.34179688 C6.20724035 14.84461935 7.75976534 19.28335002 9 24 C6.6875 25.5625 6.6875 25.5625 4 27 C3.01 26.67 2.02 26.34 1 26 C0.12109375 23.78515625 0.12109375 23.78515625 -0.5625 21.0625 C-1.50780455 17.11218472 -1.50780455 17.11218472 -4 14 C-5.98 18.95 -7.96 23.9 -10 29 C-5.71 29 -1.42 29 3 29 C3.33 29.99 3.66 30.98 4 32 C1.75006641 32.02707139 -0.49996095 32.04642829 -2.75 32.0625 C-4.00296875 32.07410156 -5.2559375 32.08570313 -6.546875 32.09765625 C-9.28536501 32.02021027 -11.41880293 31.82780815 -14 31 C-13.1032588 21.13584678 -9.2155793 11.87962449 -5 3 C-5.66 2.67 -6.32 2.34 -7 2 C-4.35261084 0.5393715 -3.10551666 0 0 0 Z " fill="#ABB2AD" transform="translate(232,266)"/>
<path d="M0 0 C3.63 0 7.26 0 11 0 C10.34 0.66 9.68 1.32 9 2 C8.62703444 5.00972657 8.62703444 5.00972657 8.5859375 8.5390625 C8.54726562 9.84101563 8.50859375 11.14296875 8.46875 12.484375 C8.43729237 13.86457862 8.40604509 15.24478704 8.375 16.625 C8.33682066 18.01304541 8.29776895 19.40106711 8.2578125 20.7890625 C8.16327057 24.19257185 8.07772103 27.59607165 8 31 C9.58164807 30.90036714 11.16223093 30.78374663 12.7421875 30.66015625 C14.06259033 30.56553101 14.06259033 30.56553101 15.40966797 30.46899414 C19.5315352 29.72270696 21.84130507 27.67802396 25 25 C24.67 27.31 24.34 29.62 24 32 C24.66 32.33 25.32 32.66 26 33 C22.8615007 34.04616643 20.94961697 34.04169366 17.67578125 33.87890625 C16.64775391 33.83056641 15.61972656 33.78222656 14.56054688 33.73242188 C13.48869141 33.67634766 12.41683594 33.62027344 11.3125 33.5625 C10.22904297 33.51029297 9.14558594 33.45808594 8.02929688 33.40429688 C5.35257409 33.27458784 2.67622112 33.13962067 0 33 C0 32.34 0 31.68 0 31 C0.66 31 1.32 31 2 31 C1.8818344 26.90637894 1.75759216 22.81299233 1.62768555 18.71972656 C1.58434154 17.3268741 1.54266604 15.93396869 1.50268555 14.54101562 C1.44497068 12.54023349 1.38078131 10.53964141 1.31640625 8.5390625 C1.27974854 7.33459473 1.24309082 6.13012695 1.20532227 4.88916016 C1.18947013 2.06003633 1.18947013 2.06003633 0 0 Z " fill="#AFBFC0" transform="translate(247,218)"/>
<path d="M0 0 C3.36179774 1.44077046 5.59156268 3.24750021 8 6 C8 6.66 8 7.32 8 8 C8.66 8 9.32 8 10 8 C10 8.66 10 9.32 10 10 C10.66 10 11.32 10 12 10 C12 10.66 12 11.32 12 12 C14.475 12.99 14.475 12.99 17 14 C16.4740625 14.928125 16.4740625 14.928125 15.9375 15.875 C15.628125 16.57625 15.31875 17.2775 15 18 C15.33 18.66 15.66 19.32 16 20 C14.68 20 13.36 20 12 20 C11.20046862 23.28696233 10.90341064 24.71023192 12 28 C11.01 28.33 10.02 28.66 9 29 C2.78735032 19.89378745 -1.8030177 12.24224781 -1 1 C-0.67 0.67 -0.34 0.34 0 0 Z " fill="#4C656E" transform="translate(158,113)"/>
<path d="M0 0 C2.1953125 0.06640625 2.1953125 0.06640625 5 1 C6.86230954 3.30891355 8.35962277 5.42267166 9.875 7.9375 C10.29007813 8.58396484 10.70515625 9.23042969 11.1328125 9.89648438 C12.16465689 11.55259462 13.0915541 13.27311551 14 15 C13 17 13 17 11 17.875 C8.79994195 18.8234856 8.79994195 18.8234856 8.25 21.125 C8.12625 22.053125 8.12625 22.053125 8 23 C7.34 23 6.68 23 6 23 C6 23.66 6 24.32 6 25 C5.34 25 4.68 25 4 25 C3.67 26.32 3.34 27.64 3 29 C-2.47290477 9.08742239 -2.47290477 9.08742239 0 0 Z " fill="#526971" transform="translate(160,76)"/>
<path d="M0 0 C3.96 0 7.92 0 12 0 C11.01 0.33 10.02 0.66 9 1 C8.94171365 5.20827473 8.906307 9.41644489 8.875 13.625 C8.85824219 14.81480469 8.84148437 16.00460938 8.82421875 17.23046875 C8.81777344 18.38417969 8.81132812 19.53789062 8.8046875 20.7265625 C8.78897705 22.31331787 8.78897705 22.31331787 8.77294922 23.93212891 C9.01729143 27.23363888 9.83117023 29.91412763 11 33 C7.04 33 3.08 33 -1 33 C-1.33 32.01 -1.66 31.02 -2 30 C-1.01 29.67 -0.02 29.34 1 29 C3.11689593 24.76620814 2.18493005 19.15160218 2.1875 14.5 C2.19974609 13.33339844 2.21199219 12.16679687 2.22460938 10.96484375 C2.22654297 9.85238281 2.22847656 8.73992187 2.23046875 7.59375 C2.23663208 6.05750977 2.23663208 6.05750977 2.24291992 4.49023438 C2.24910216 1.82569246 2.24910216 1.82569246 0 0 Z " fill="#ABB3B2" transform="translate(277,218)"/>
<path d="M0 0 C3.96 0 7.92 0 12 0 C11.67 1.32 11.34 2.64 11 4 C10.93256652 6.08234592 10.91485528 8.16668557 10.9375 10.25 C10.958125 12.1475 10.97875 14.045 11 16 C15.62 16 20.24 16 25 16 C25 16.33 25 16.66 25 17 C19.72 17 14.44 17 9 17 C9 20.63 9 24.26 9 28 C8.34 27.01 7.68 26.02 7 25 C7 26.32 7 27.64 7 29 C6.01 29 5.02 29 4 29 C3.97494385 28.34926514 3.9498877 27.69853027 3.92407227 27.02807617 C3.80806298 24.08101954 3.68535885 21.1342787 3.5625 18.1875 C3.52318359 17.16333984 3.48386719 16.13917969 3.44335938 15.08398438 C3.40146484 14.10107422 3.35957031 13.11816406 3.31640625 12.10546875 C3.26141968 10.74651489 3.26141968 10.74651489 3.20532227 9.36010742 C3.0791795 6.84951218 3.0791795 6.84951218 2 4 C1.34 3.67 0.68 3.34 0 3 C0 2.01 0 1.02 0 0 Z " fill="#9A9F9A" transform="translate(136,217)"/>
<path d="M0 0 C0.33 0 0.66 0 1 0 C1.17835515 4.54805635 0.99785435 7.8794254 -1 12 C-1.66 12 -2.32 12 -3 12 C-3 12.66 -3 13.32 -3 14 C-10.50532051 17.89164767 -16.06428426 19.41802169 -24.375 16.8125 C-27.04952515 15.6850041 -27.8489943 15.22650856 -29.5 12.75 C-30.0997788 9.4512166 -30.13119204 6.34539692 -30 3 C-29.01 3 -28.02 3 -27 3 C-25 6 -25 6 -25 9 C-24.34 9 -23.68 9 -23 9 C-23 9.66 -23 10.32 -23 11 C-21.4176994 11.33820166 -19.83410625 11.67035939 -18.25 12 C-16.92742187 12.2784375 -16.92742187 12.2784375 -15.578125 12.5625 C-12.77856035 13.11153675 -12.77856035 13.11153675 -9 13 C-9 12.34 -9 11.68 -9 11 C-8.34 11 -7.68 11 -7 11 C-6.67 10.34 -6.34 9.68 -6 9 C-5.01 9.33 -4.02 9.66 -3 10 C-2.67 8.68 -2.34 7.36 -2 6 C-1.34 6 -0.68 6 0 6 C0 4.02 0 2.04 0 0 Z " fill="#ACAFAF" transform="translate(337,298)"/>
<path d="M0 0 C0 3.63 0 7.26 0 11 C-6.37009031 11.35389391 -12.13600562 10.67270492 -18 8 C-20.296875 5.890625 -20.296875 5.890625 -22 4 C-19.64856824 3.32210976 -17.29461376 2.65759253 -14.9375 2 C-13.95233398 1.71382813 -13.95233398 1.71382813 -12.94726562 1.421875 C-8.5325982 0.20403571 -4.62058323 -0.19227394 0 0 Z " fill="#3F5962" transform="translate(169,274)"/>
<path d="M0 0 C3.3 0 6.6 0 10 0 C10 0.99 10 1.98 10 3 C9.01 3.495 9.01 3.495 8 4 C6.92044788 7.23865635 6.79558259 9.79155838 6.68359375 13.19921875 C6.64169922 14.40771484 6.59980469 15.61621094 6.55664062 16.86132812 C6.51732422 18.12396484 6.47800781 19.38660156 6.4375 20.6875 C6.37272461 22.59885742 6.37272461 22.59885742 6.30664062 24.54882812 C6.2004514 27.69910852 6.09840467 30.84946839 6 34 C4.35 33.67 2.7 33.34 1 33 C0 26.25 0 26.25 0 24 C0.99 24 1.98 24 3 24 C2.67 17.4 2.34 10.8 2 4 C1.01 3.67 0.02 3.34 -1 3 C-0.67 2.01 -0.34 1.02 0 0 Z " fill="#A0A3A0" transform="translate(321,217)"/>
<path d="M0 0 C8.625 -0.25 8.625 -0.25 12 2 C12.3984375 4.96875 12.3984375 4.96875 12.375 8.5 C12.38273438 9.6653125 12.39046875 10.830625 12.3984375 12.03125 C12.26695312 13.0109375 12.13546875 13.990625 12 15 C7.7975546 17.80163026 4.99895065 17.14489712 0 17 C0 11.39 0 5.78 0 0 Z M3 3 C3 3.99 3 4.98 3 6 C4.65 6 6.3 6 8 6 C8 5.01 8 4.02 8 3 C6.35 3 4.7 3 3 3 Z M3 9 C3 10.65 3 12.3 3 14 C4.65 14 6.3 14 8 14 C8 12.68 8 11.36 8 10 C6.35 9.67 4.7 9.34 3 9 Z " fill="#A3A6A3" transform="translate(169,346)"/>
<path d="M0 0 C0.66 0 1.32 0 2 0 C2.23187012 0.60062256 2.46374023 1.20124512 2.70263672 1.82006836 C3.75292553 4.52872174 4.81380391 7.23310235 5.875 9.9375 C6.23980469 10.88302734 6.60460937 11.82855469 6.98046875 12.80273438 C7.51220703 14.15141602 7.51220703 14.15141602 8.0546875 15.52734375 C8.37937012 16.35999756 8.70405273 17.19265137 9.03857422 18.05053711 C9.84081084 20.17222671 9.84081084 20.17222671 12 21 C12 21.66 12 22.32 12 23 C8.37 23 4.74 23 1 23 C1 22.34 1 21.68 1 21 C1.66 21 2.32 21 3 21 C2.34 17.7 1.68 14.4 1 11 C-2.3 11 -5.6 11 -9 11 C-9 10.34 -9 9.68 -9 9 C-6.36 9 -3.72 9 -1 9 C-1.020625 7.700625 -1.04125 6.40125 -1.0625 5.0625 C-1.08399454 3.70834367 -1.07148199 2.35243917 -1 1 C-0.67 0.67 -0.34 0.34 0 0 Z " fill="#B3C3C4" transform="translate(229,228)"/>
<path d="M0 0 C0.99 0 1.98 0 3 0 C3 1.98 3 3.96 3 6 C5.31 6 7.62 6 10 6 C10 4.35 10 2.7 10 1 C11.32 0.67 12.64 0.34 14 0 C14 5.61 14 11.22 14 17 C12.68 16.67 11.36 16.34 10 16 C10 14.02 10 12.04 10 10 C7.69 10 5.38 10 3 10 C3 12.31 3 14.62 3 17 C2.01 16.67 1.02 16.34 0 16 C0 10.72 0 5.44 0 0 Z " fill="#ABADAB" transform="translate(277,346)"/>
<path d="M0 0 C7.59 0 15.18 0 23 0 C24.88343932 3.76687864 25.22057835 5.02958963 25 9 C24.01 9 23.02 9 22 9 C21.67 7.68 21.34 6.36 21 5 C15.555 4.505 15.555 4.505 10 4 C9.01 5.485 9.01 5.485 8 7 C7.34 7 6.68 7 6 7 C5.67 14.26 5.34 21.52 5 29 C4.67 29 4.34 29 4 29 C3.67 20.75 3.34 12.5 3 4 C2.01 3.67 1.02 3.34 0 3 C0 2.01 0 1.02 0 0 Z " fill="#BABDB9" transform="translate(177,217)"/>
<path d="M0 0 C2.32421875 0.1015625 2.32421875 0.1015625 5 1 C6.58203125 3.8359375 6.58203125 3.8359375 7.8125 7.375 C8.23144531 8.53773438 8.65039062 9.70046875 9.08203125 10.8984375 C10 14 10 14 10 17 C8.68 16.67 7.36 16.34 6 16 C6 15.01 6 14.02 6 13 C2.56769552 13.26393501 2.56769552 13.26393501 -1 14 C-1.99 15.485 -1.99 15.485 -3 17 C-3.99 17 -4.98 17 -6 17 C-5.34496718 12.94180817 -4.05440879 9.46028718 -2.4375 5.6875 C-1.75494141 4.08455078 -1.75494141 4.08455078 -1.05859375 2.44921875 C-0.53458984 1.23685547 -0.53458984 1.23685547 0 0 Z M1 6 C0.67 7.32 0.34 8.64 0 10 C1.32 9.67 2.64 9.34 4 9 C3.01 8.01 2.02 7.02 1 6 Z " fill="#B5B8B6" transform="translate(242,346)"/>
<path d="M0 0 C7.26 0 14.52 0 22 0 C19.06726732 2.93273268 17.7244093 3.69845018 13.96484375 5.04296875 C12.99095703 5.39423828 12.01707031 5.74550781 11.01367188 6.10742188 C9.99853516 6.46384766 8.98339844 6.82027344 7.9375 7.1875 C6.91849609 7.55552734 5.89949219 7.92355469 4.84960938 8.30273438 C-2.70173353 11 -2.70173353 11 -5 11 C-5 10.34 -5 9.68 -5 9 C-3.35 8.67 -1.7 8.34 0 8 C0 5.36 0 2.72 0 0 Z " fill="#57696E" transform="translate(248,251)"/>
<path d="M0 0 C1.32 0 2.64 0 4 0 C5.32 3.3 6.64 6.6 8 10 C9.65 6.7 11.3 3.4 13 0 C13.99 0 14.98 0 16 0 C15.37748914 3.61185991 14.39374524 6.8004941 13 10.1875 C12.649375 11.04730469 12.29875 11.90710938 11.9375 12.79296875 C11.33387901 14.21399316 10.69045908 15.61908185 10 17 C8.203125 16.8984375 8.203125 16.8984375 6 16 C4.296875 13.1640625 4.296875 13.1640625 2.75 9.625 C2.22921875 8.46226562 1.7084375 7.29953125 1.171875 6.1015625 C0 3 0 3 0 0 Z " fill="#ACAFAC" transform="translate(298,346)"/>
<path d="M0 0 C0.33 0 0.66 0 1 0 C1 7.26 1 14.52 1 22 C1.99 22 2.98 22 4 22 C3.79375 21.38125 3.5875 20.7625 3.375 20.125 C3.25125 19.42375 3.1275 18.7225 3 18 C3.66 17.34 4.32 16.68 5 16 C5.33 14.02 5.66 12.04 6 10 C11.94 10 17.88 10 24 10 C23.67 11.32 23.34 12.64 23 14 C23 13.01 23 12.02 23 11 C17.72 11 12.44 11 7 11 C7 15.29 7 19.58 7 24 C8.32 24.33 9.64 24.66 11 25 C11 25.66 11 26.32 11 27 C6.38 27 1.76 27 -3 27 C-3 26.01 -3 25.02 -3 24 C-2.34 23.67 -1.68 23.34 -1 23 C-0.67 15.41 -0.34 7.82 0 0 Z " fill="#B7BBB8" transform="translate(139,224)"/>
<path d="M0 0 C0.33 1.32 0.66 2.64 1 4 C-1.31 3.67 -3.62 3.34 -6 3 C-4.49336217 6.01327566 -1.96833589 6.61056618 1 8 C1 10.64 1 13.28 1 16 C-1.95664519 17.4783226 -4.74229737 17.06032783 -8 17 C-8.66 15.68 -9.32 14.36 -10 13 C-7.36 13.33 -4.72 13.66 -2 14 C-2.33 13.01 -2.66 12.02 -3 11 C-3.99 10.525625 -4.98 10.05125 -6 9.5625 C-9 8 -9 8 -9.9375 6 C-10 4 -10 4 -9 1 C-6.04335481 -0.4783226 -3.25770263 -0.06032783 0 0 Z " fill="#A9ACAB" transform="translate(268,346)"/>
<path d="M0 0 C0.99 0 1.98 0 3 0 C3.02505615 0.61520508 3.0501123 1.23041016 3.07592773 1.86425781 C3.19218487 4.65970156 3.31477642 7.45483298 3.4375 10.25 C3.47681641 11.21808594 3.51613281 12.18617188 3.55664062 13.18359375 C3.61948242 14.58544922 3.61948242 14.58544922 3.68359375 16.015625 C3.72025146 16.87446289 3.75690918 17.73330078 3.79467773 18.61816406 C3.96238164 21.29809686 3.96238164 21.29809686 5 25 C2.03 25 -0.94 25 -4 25 C-4 24.01 -4 23.02 -4 22 C-3.34 21.67 -2.68 21.34 -2 21 C-0.62393631 15.63933449 -1.00394004 10.33815933 -1.94140625 4.9453125 C-2 3 -2 3 0 0 Z " fill="#B3B4B1" transform="translate(299,226)"/>
<path d="M0 0 C3.96 0 7.92 0 12 0 C11.74535902 2.1270011 11.47077058 4.25162215 11.1875 6.375 C11.03667969 7.55835938 10.88585937 8.74171875 10.73046875 9.9609375 C10 13 10 13 7 15 C6.01 15 5.02 15 4 15 C3.96261719 14.22914063 3.92523438 13.45828125 3.88671875 12.6640625 C3.82097656 11.66117188 3.75523437 10.65828125 3.6875 9.625 C3.62949219 8.62726563 3.57148438 7.62953125 3.51171875 6.6015625 C3.34285156 5.74304688 3.17398437 4.88453125 3 4 C2.01 3.34 1.02 2.68 0 2 C0 1.34 0 0.68 0 0 Z " fill="#A5A9A5" transform="translate(356,235)"/>
<path d="M0 0 C1.32 0 2.64 0 4 0 C6 3 6 3 6 6 C6.66 6 7.32 6 8 6 C8.226875 5.195625 8.45375 4.39125 8.6875 3.5625 C9.120625 2.716875 9.55375 1.87125 10 1 C12.625 0.1875 12.625 0.1875 15 0 C14.3566152 1.313702 13.71021785 2.62592898 13.0625 3.9375 C12.70285156 4.66839844 12.34320313 5.39929688 11.97265625 6.15234375 C11 8 11 8 10 9 C9.63239269 11.32817964 9.29758419 13.6618385 9 16 C7.68 16 6.36 16 5 16 C4.89042969 15.40832031 4.78085938 14.81664062 4.66796875 14.20703125 C3.732075 9.54278029 2.67286745 6.00930117 0 2 C0 1.34 0 0.68 0 0 Z " fill="#B4B6B3" transform="translate(187,346)"/>
<path d="M0 0 C3.24208567 0.35049575 4.61527704 0.56221181 6.8125 3.0625 C7.204375 3.701875 7.59625 4.34125 8 5 C8.598125 4.175 9.19625 3.35 9.8125 2.5 C10.534375 1.675 11.25625 0.85 12 0 C12.99 0 13.98 0 15 0 C14.55055737 2.9213771 13.75289114 4.34749684 12 6.8125 C9.79195245 10.33157578 9.32805772 12.8992785 9 17 C8.01 17 7.02 17 6 17 C5.90203125 16.443125 5.8040625 15.88625 5.703125 15.3125 C4.58748557 9.6188919 2.77761221 5.09228905 0 0 Z " fill="#B2B3B3" transform="translate(217,346)"/>
<path d="M0 0 C3.16115776 1.36983503 3.9927092 1.9890638 6 5 C6.25760279 7.69452521 6.08900053 10.28548375 6 13 C5.34 13 4.68 13 4 13 C4 14.65 4 16.3 4 18 C2.68 18 1.36 18 0 18 C-0.07347656 17.11248047 -0.07347656 17.11248047 -0.1484375 16.20703125 C-0.62259984 11.06104453 -0.62259984 11.06104453 -2.25 6.1875 C-2.4975 5.465625 -2.745 4.74375 -3 4 C-1.625 1.6875 -1.625 1.6875 0 0 Z " fill="#A3AAA4" transform="translate(331,291)"/>
<path d="M0 0 C0.99 0 1.98 0 3 0 C3.67090715 7.24579719 1.58125682 11.75838097 -2 18 C-1.01 18 -0.02 18 1 18 C1 18.66 1 19.32 1 20 C-0.258125 20.185625 -1.51625 20.37125 -2.8125 20.5625 C-3.52019531 20.66691406 -4.22789062 20.77132812 -4.95703125 20.87890625 C-7 21 -7 21 -10 20 C-10 19.34 -10 18.68 -10 18 C-9.37222656 17.91878906 -8.74445313 17.83757812 -8.09765625 17.75390625 C-5.85675388 17.21484429 -5.85675388 17.21484429 -5.05859375 15.21484375 C-4.75115234 14.08755859 -4.75115234 14.08755859 -4.4375 12.9375 C-4.20289063 12.133125 -3.96828125 11.32875 -3.7265625 10.5 C-3.48679688 9.675 -3.24703125 8.85 -3 8 C-2.45271444 6.4736256 -1.89132936 4.95219365 -1.3125 3.4375 C-0.879375 2.303125 -0.44625 1.16875 0 0 Z " fill="#A2ABAC" transform="translate(217,231)"/>
<path d="M0 0 C3.96 0 7.92 0 12 0 C11.01 0.33 10.02 0.66 9 1 C8.87882812 2.09699219 8.75765625 3.19398438 8.6328125 4.32421875 C8.46390637 5.77868823 8.29461519 7.23311304 8.125 8.6875 C8.04636719 9.40873047 7.96773438 10.12996094 7.88671875 10.87304688 C7.24085999 16.31316492 6.08047131 20.37929304 3 25 C2.98018066 24.31373535 2.96036133 23.6274707 2.93994141 22.92041016 C2.84489055 19.82154221 2.73513153 16.72336706 2.625 13.625 C2.5940625 12.54476562 2.563125 11.46453125 2.53125 10.3515625 C2.49257813 9.3203125 2.45390625 8.2890625 2.4140625 7.2265625 C2.3826416 6.27346191 2.3512207 5.32036133 2.31884766 4.33837891 C2.21444204 1.81104824 2.21444204 1.81104824 0 0 Z " fill="#BAC8C8" transform="translate(277,218)"/>
<path d="M0 0 C0.66 0.33 1.32 0.66 2 1 C3.55033393 5.80603519 3.0872355 11.00819059 3 16 C2.01 16 1.02 16 0 16 C-0.66 14.35 -1.32 12.7 -2 11 C-3.32 11 -4.64 11 -6 11 C-6 9.35 -6 7.7 -6 6 C-4.68 5.67 -3.36 5.34 -2 5 C-1.855625 4.360625 -1.71125 3.72125 -1.5625 3.0625 C-1 1 -1 1 0 0 Z " fill="#ABB4AD" transform="translate(190,282)"/>
<path d="M0 0 C1.36125 1.0209375 1.36125 1.0209375 2.75 2.0625 C7.13364892 4.67582916 10.15291215 3.99096018 15 3 C15 4.32 15 5.64 15 7 C11.02042323 8.98978838 6.32514725 8.53483004 2 8 C-1.6801411 6.43943384 -5.17014004 4.65971993 -7 1 C-4.37310841 -0.31344579 -2.93059745 -0.33302244 0 0 Z " fill="#A9AEAB" transform="translate(345,244)"/>
<path d="M0 0 C0.33 0 0.66 0 1 0 C1 3.63 1 7.26 1 11 C3.97 11 6.94 11 10 11 C10 11.99 10 12.98 10 14 C6.7 14 3.4 14 0 14 C0 13.34 0 12.68 0 12 C-0.66 12 -1.32 12 -2 12 C-2.33 14.31 -2.66 16.62 -3 19 C-3.33 19 -3.66 19 -4 19 C-4 13.06 -4 7.12 -4 1 C-3.67 1.66 -3.34 2.32 -3 3 C-2.34 3 -1.68 3 -1 3 C-0.67 2.01 -0.34 1.02 0 0 Z " fill="#9FA39F" transform="translate(186,221)"/>
<path d="M0 0 C3.78075988 0.59518223 6.69010612 1.70694977 10.0625 3.5 C13.05446517 5.08587984 15.69948812 6.26107943 19 7 C20.3479743 7.63654342 21.68596724 8.29605388 23 9 C20.13206499 10.43396751 18.11804577 9.55024337 15 9 C14.113125 9 13.22625 9 12.3125 9 C10 9 10 9 7 8 C7 7.01 7 6.02 7 5 C5.35 6.65 3.7 8.3 2 10 C0.39644899 6.49223216 -0.22036864 3.85645121 0 0 Z " fill="#5D7077" transform="translate(166,149)"/>
<path d="M0 0 C0.99 0 1.98 0 3 0 C2.125 6.75 2.125 6.75 1 9 C-6.77091491 10.94696125 -15.14284626 9.73590057 -23 9 C-23 8.01 -23 7.02 -23 6 C-22.01 5.67 -21.02 5.34 -20 5 C-20 5.66 -20 6.32 -20 7 C-18.02 7 -16.04 7 -14 7 C-14 6.67 -14 6.34 -14 6 C-13.32453125 5.98582031 -12.6490625 5.97164062 -11.953125 5.95703125 C-6.09649031 5.79953059 -6.09649031 5.79953059 -1.5625 2.4375 C-1.046875 1.633125 -0.53125 0.82875 0 0 Z " fill="#C0C3BF" transform="translate(201,242)"/>
<path d="M0 0 C0 5.28 0 10.56 0 16 C-2.31 16.33 -4.62 16.66 -7 17 C-6.77093046 14.91426154 -6.51590108 12.83136359 -6.25 10.75 C-6.11078125 9.58984375 -5.9715625 8.4296875 -5.828125 7.234375 C-5.11856506 4.46307486 -3.57973403 0 0 0 Z " fill="#B1BEBC" transform="translate(175,269)"/>
<path d="M0 0 C3.36179774 1.44077046 5.59156268 3.24750021 8 6 C8 6.66 8 7.32 8 8 C8.66 8 9.32 8 10 8 C9.67 8.66 9.34 9.32 9 10 C8.34 9.67 7.68 9.34 7 9 C7.33 9.99 7.66 10.98 8 12 C6.0625 11.625 6.0625 11.625 4 11 C3.67 10.34 3.34 9.68 3 9 C3 9.99 3 10.98 3 12 C2 14.1875 2 14.1875 1 16 C-0.74511597 10.76465209 -1.2857653 6.52479577 -1 1 C-0.67 0.67 -0.34 0.34 0 0 Z " fill="#64777E" transform="translate(158,113)"/>
<path d="M0 0 C3.3 0.66 6.6 1.32 10 2 C8 6 8 6 5 8 C5.639375 8.268125 6.27875 8.53625 6.9375 8.8125 C9 10 9 10 10 13 C9.01 13.495 9.01 13.495 8 14 C7.34 13.67 6.68 13.34 6 13 C6 12.34 6 11.68 6 11 C5.34 11 4.68 11 4 11 C4 10.34 4 9.68 4 9 C3.34 9 2.68 9 2 9 C0.3125 6.75 0.3125 6.75 -1 4 C-0.67 2.68 -0.34 1.36 0 0 Z " fill="#5B6E74" transform="translate(182,176)"/>
<path d="M0 0 C2.475 0.99 2.475 0.99 5 2 C3.75023244 5.65316671 3.32901247 6.78065836 0 9 C0.2784375 10.1446875 0.2784375 10.1446875 0.5625 11.3125 C1 14 1 14 0 17 C-0.66 17 -1.32 17 -2 17 C-2 16.01 -2 15.02 -2 14 C-2.99 13.67 -3.98 13.34 -5 13 C-5 9.09567131 -4.31626692 6.61973402 -3 3 C-2.34 3 -1.68 3 -1 3 C-0.67 2.01 -0.34 1.02 0 0 Z " fill="#3F5A63" transform="translate(173,128)"/>
<path d="M0 0 C3.3 0 6.6 0 10 0 C10 0.99 10 1.98 10 3 C9.01 3.495 9.01 3.495 8 4 C7.01 5.485 7.01 5.485 6 7 C6 6.34 6 5.68 6 5 C5.34 5 4.68 5 4 5 C4 11.93 4 18.86 4 26 C2 24 2 24 1.77294922 21.93701172 C1.78342285 21.10959473 1.79389648 20.28217773 1.8046875 19.4296875 C1.81113281 18.53378906 1.81757813 17.63789063 1.82421875 16.71484375 C1.84097656 15.77769531 1.85773438 14.84054688 1.875 13.875 C1.88402344 12.93011719 1.89304687 11.98523438 1.90234375 11.01171875 C1.92595478 8.67422708 1.95888484 6.33723877 2 4 C1.01 3.67 0.02 3.34 -1 3 C-0.67 2.01 -0.34 1.02 0 0 Z " fill="#BABDBC" transform="translate(321,217)"/>
<path d="M0 0 C0.99 0 1.98 0 3 0 C3 5.61 3 11.22 3 17 C1.68 16.67 0.36 16.34 -1 16 C-1.02685095 13.52076199 -1.04676547 11.0418116 -1.0625 8.5625 C-1.07506836 7.50192383 -1.07506836 7.50192383 -1.08789062 6.41992188 C-1.09653588 4.61306441 -1.05220011 2.80612397 -1 1 C-0.67 0.67 -0.34 0.34 0 0 Z " fill="#BBBDBA" transform="translate(321,346)"/>
<path d="M0 0 C0.33 3.3 0.66 6.6 1 10 C0.01 10 -0.98 10 -2 10 C-3.03789581 8.35666496 -4.03567924 6.68756133 -5 5 C-7.91765 3.0549 -9.62537285 2.54723683 -13 2 C-13 1.34 -13 0.68 -13 0 C-8.38926889 -1.29676812 -4.66159911 -0.71109139 0 0 Z " fill="#AFBCBD" transform="translate(195,268)"/>
<path d="M0 0 C4.55737263 0.43820891 7.57653445 0.85041169 11 4 C5.41319959 5.96292988 -0.28252551 7.47398368 -6 9 C-6 8.34 -6 7.68 -6 7 C-4.68 7 -3.36 7 -2 7 C-2.33 5.35 -2.66 3.7 -3 2 C-2.01 1.67 -1.02 1.34 0 1 C0 0.67 0 0.34 0 0 Z " fill="#697A82" transform="translate(348,162)"/>
<path d="M0 0 C3.96 0 7.92 0 12 0 C11.67 1.32 11.34 2.64 11 4 C10.93311409 5.91561254 10.91468281 7.83335592 10.9375 9.75 C10.95103516 11.22726563 10.95103516 11.22726563 10.96484375 12.734375 C10.97644531 13.48203125 10.98804688 14.2296875 11 15 C10.34 15 9.68 15 9 15 C9 11.37 9 7.74 9 4 C7.02 4.66 5.04 5.32 3 6 C1.5 4.6875 1.5 4.6875 0 3 C0 2.01 0 1.02 0 0 Z " fill="#A8ABA8" transform="translate(136,217)"/>
<path d="M0 0 C0.66 0 1.32 0 2 0 C2.50833591 1.24663331 3.00631145 2.49749387 3.5 3.75 C3.7784375 4.44609375 4.056875 5.1421875 4.34375 5.859375 C5 8 5 8 5 12 C2.36 12 -0.28 12 -3 12 C-2.01 8.04 -1.02 4.08 0 0 Z " fill="#475A5F" transform="translate(223,225)"/>
<path d="M0 0 C0.33 0 0.66 0 1 0 C1.17835515 4.54805635 0.99785435 7.8794254 -1 12 C-1.66 12 -2.32 12 -3 12 C-3 12.66 -3 13.32 -3 14 C-5.8125 15.5625 -5.8125 15.5625 -9 17 C-9.99 16.67 -10.98 16.34 -12 16 C-12.33 15.01 -12.66 14.02 -13 13 C-11.68 13 -10.36 13 -9 13 C-9 12.34 -9 11.68 -9 11 C-8.34 11 -7.68 11 -7 11 C-6.67 10.34 -6.34 9.68 -6 9 C-5.01 9.33 -4.02 9.66 -3 10 C-2.67 8.68 -2.34 7.36 -2 6 C-1.34 6 -0.68 6 0 6 C0 4.02 0 2.04 0 0 Z " fill="#B9BCB8" transform="translate(337,298)"/>
<path d="M0 0 C0.66 0.33 1.32 0.66 2 1 C2.1875 4.375 2.1875 4.375 2 8 C-1.20380017 10.13586678 -2.01939967 10.23132175 -5.6875 10.125 C-6.89986328 10.09792969 -6.89986328 10.09792969 -8.13671875 10.0703125 C-9.05904297 10.03550781 -9.05904297 10.03550781 -10 10 C-10 8.68 -10 7.36 -10 6 C-9.01 5.67 -8.02 5.34 -7 5 C-7 5.66 -7 6.32 -7 7 C-5.35 6.67 -3.7 6.34 -2 6 C-2.33 4.68 -2.66 3.36 -3 2 C-2.01 2 -1.02 2 0 2 C0 1.34 0 0.68 0 0 Z " fill="#A5A6A4" transform="translate(179,353)"/>
<path d="M0 0 C0.33 0.99 0.66 1.98 1 3 C5.29 3 9.58 3 14 3 C14.33 3.99 14.66 4.98 15 6 C12.75006641 6.02707139 10.50003905 6.04642829 8.25 6.0625 C6.99703125 6.07410156 5.7440625 6.08570313 4.453125 6.09765625 C1.71463499 6.02021027 -0.41880293 5.82780815 -3 5 C-2.625 3.0625 -2.625 3.0625 -2 1 C-1.34 0.67 -0.68 0.34 0 0 Z " fill="#9EA29E" transform="translate(221,292)"/>
<path d="M0 0 C4.29 0 8.58 0 13 0 C13.33 2.64 13.66 5.28 14 8 C13.01 8 12.02 8 11 8 C10.67 6.68 10.34 5.36 10 4 C6.7 3.34 3.4 2.68 0 2 C0 1.34 0 0.68 0 0 Z " fill="#A9ADA9" transform="translate(188,218)"/>
<path d="M0 0 C-0.33 0.66 -0.66 1.32 -1 2 C-1.35169068 3.32860925 -1.68770276 4.66158328 -2 6 C-2.99 6 -3.98 6 -5 6 C-5.33 6.66 -5.66 7.32 -6 8 C-8 6.25 -8 6.25 -10 4 C-10 2.68 -10 1.36 -10 0 C-2.25 -1.125 -2.25 -1.125 0 0 Z " fill="#556872" transform="translate(213,199)"/>
<path d="M0 0 C10.55808656 -0.18451025 10.55808656 -0.18451025 15 1 C13.02 1.99 13.02 1.99 11 3 C11 3.66 11 4.32 11 5 C8.03 4.67 5.06 4.34 2 4 C2 10.93 2 17.86 2 25 C1.67 25 1.34 25 1 25 C1 17.74 1 10.48 1 3 C4.465 2.505 4.465 2.505 8 2 C5.36 1.67 2.72 1.34 0 1 C0 0.67 0 0.34 0 0 Z " fill="#D9DCD7" transform="translate(271,267)"/>
<path d="M0 0 C1.2065625 0.0309375 1.2065625 0.0309375 2.4375 0.0625 C2.7675 0.7225 3.0975 1.3825 3.4375 2.0625 C2.1175 1.7325 0.7975 1.4025 -0.5625 1.0625 C-0.5625 1.7225 -0.5625 2.3825 -0.5625 3.0625 C-2.5425 4.0525 -2.5425 4.0525 -4.5625 5.0625 C-4.5625 7.0425 -4.5625 9.0225 -4.5625 11.0625 C-5.5525 11.5575 -5.5525 11.5575 -6.5625 12.0625 C-6.5625 10.4125 -6.5625 8.7625 -6.5625 7.0625 C-8.8725 7.0625 -11.1825 7.0625 -13.5625 7.0625 C-13.5625 6.4025 -13.5625 5.7425 -13.5625 5.0625 C-12.49708984 4.64677734 -12.49708984 4.64677734 -11.41015625 4.22265625 C-10.03150391 3.67931641 -10.03150391 3.67931641 -8.625 3.125 C-7.70847656 2.76535156 -6.79195312 2.40570313 -5.84765625 2.03515625 C-1.13107855 0.02758728 -1.13107855 0.02758728 0 0 Z " fill="#546669" transform="translate(201.5625,260.9375)"/>
<path d="M0 0 C2.31 0 4.62 0 7 0 C8.60725635 3.21451269 8.05748185 6.43612536 8 10 C7.01 10 6.02 10 5 10 C3.33333333 6.66666667 1.66666667 3.33333333 0 0 Z " fill="#A2A6A2" transform="translate(358,218)"/>
<path d="M0 0 C0.99 0 1.98 0 3 0 C3 3.63 3 7.26 3 11 C1.68 10.34 0.36 9.68 -1 9 C-3.66353755 8.48479018 -6.29499131 8.27050087 -9 8 C-9 7.67 -9 7.34 -9 7 C-6.36 6.67 -3.72 6.34 -1 6 C-1.33 5.01 -1.66 4.02 -2 3 C-1.34 2.01 -0.68 1.02 0 0 Z " fill="#C2C3C3" transform="translate(196,228)"/>
<path d="M0 0 C0.66 0.33 1.32 0.66 2 1 C2 1.66 2 2.32 2 3 C2.66 3 3.32 3 4 3 C4 2.34 4 1.68 4 1 C5.32 1.33 6.64 1.66 8 2 C8 2.66 8 3.32 8 4 C7.01 4.495 7.01 4.495 6 5 C5.67 5.99 5.34 6.98 5 8 C3.0625 8.75 3.0625 8.75 1 9 C0.34 8.67 -0.32 8.34 -1 8 C-1.75 5.0625 -1.75 5.0625 -2 2 C-1.34 1.34 -0.68 0.68 0 0 Z " fill="#3F5861" transform="translate(161,121)"/>
<path d="M0 0 C3 0 3 0 6 1 C6.9375 2.8125 6.9375 2.8125 7 5 C5.25 7.25 5.25 7.25 3 9 C2.01 9 1.02 9 0 9 C0 6.03 0 3.06 0 0 Z " fill="#465E67" transform="translate(161,79)"/>
<path d="M0 0 C0 1.65 0 3.3 0 5 C0.66 5 1.32 5 2 5 C2 5.66 2 6.32 2 7 C-1.63 7 -5.26 7 -9 7 C-9 6.01 -9 5.02 -9 4 C-3.30769231 0 -3.30769231 0 0 0 Z " fill="#A6ABA7" transform="translate(216,307)"/>
<path d="M0 0 C0.99 0 1.98 0 3 0 C3 5.61 3 11.22 3 17 C2.01 16.67 1.02 16.34 0 16 C0.66 16 1.32 16 2 16 C2 12.7 2 9.4 2 6 C1.01 6.495 1.01 6.495 0 7 C-2.6723621 7.13415472 -5.32250488 7.04318541 -8 7 C-8 6.67 -8 6.34 -8 6 C-5.69 6 -3.38 6 -1 6 C-1.020625 5.195625 -1.04125 4.39125 -1.0625 3.5625 C-1 1 -1 1 0 0 Z " fill="#BABEBA" transform="translate(288,346)"/>
<path d="M0 0 C-0.66 0 -1.32 0 -2 0 C-0.63016497 3.16115776 -0.0109362 3.9927092 3 6 C0.58292094 6.85276722 -0.64003451 7.12087895 -3.10546875 6.29296875 C-3.79253906 5.92816406 -4.47960937 5.56335938 -5.1875 5.1875 C-5.88230469 4.83042969 -6.57710937 4.47335937 -7.29296875 4.10546875 C-9 3 -9 3 -10 1 C-3.375 -1.125 -3.375 -1.125 0 0 Z " fill="#647479" transform="translate(157,277)"/>
<path d="M0 0 C0.33 0.99 0.66 1.98 1 3 C2.65 3.33 4.3 3.66 6 4 C6 4.33 6 4.66 6 5 C4.02 5 2.04 5 0 5 C-0.66 6.65 -1.32 8.3 -2 10 C-2.99 10 -3.98 10 -5 10 C-4.47731534 7.23723823 -3.89130413 4.6739124 -3 2 C-2.01 1.34 -1.02 0.68 0 0 Z " fill="#A5A9A6" transform="translate(241,353)"/>
<path d="M0 0 C1.33332095 2.6666419 0.67102033 4.16680303 0 7 C0.66 7.33 1.32 7.66 2 8 C-1.1384993 9.04616643 -3.05038303 9.04169366 -6.32421875 8.87890625 C-7.35224609 8.83056641 -8.38027344 8.78222656 -9.43945312 8.73242188 C-11.04723633 8.64831055 -11.04723633 8.64831055 -12.6875 8.5625 C-13.77095703 8.51029297 -14.85441406 8.45808594 -15.97070312 8.40429688 C-18.64742591 8.27458784 -21.32377888 8.13962067 -24 8 C-23.67 7.34 -23.34 6.68 -23 6 C-15.74 6.33 -8.48 6.66 -1 7 C-1 6.34 -1 5.68 -1 5 C-2.32 4.67 -3.64 4.34 -5 4 C-3.35 2.68 -1.7 1.36 0 0 Z " fill="#9DAEB3" transform="translate(271,243)"/>
<path d="M0 0 C3.63 0 7.26 0 11 0 C9.02 0.99 9.02 0.99 7 2 C4.75176434 3.21735921 4.75176434 3.21735921 3 5 C2.3049261 7.49407252 2.3049261 7.49407252 2.25 10.1875 C2.19328125 11.08855469 2.1365625 11.98960937 2.078125 12.91796875 C2.05234375 13.60503906 2.0265625 14.29210937 2 15 C1.67 15 1.34 15 1 15 C1 11.04 1 7.08 1 3 C0.34 3 -0.32 3 -1 3 C-0.67 2.01 -0.34 1.02 0 0 Z " fill="#B6BDB6" transform="translate(161,217)"/>
<path d="M0 0 C1.32 0.33 2.64 0.66 4 1 C3.34 4.3 2.68 7.6 2 11 C2.66 11 3.32 11 4 11 C3.67 11.99 3.34 12.98 3 14 C3 13.34 3 12.68 3 12 C2.34 12 1.68 12 1 12 C0.71125 11.360625 0.4225 10.72125 0.125 10.0625 C-0.82823451 7.84793921 -0.82823451 7.84793921 -3 7 C-2.01 4.69 -1.02 2.38 0 0 Z " fill="#B8BCB9" transform="translate(215,300)"/>
<path d="M0 0 C4.77371881 0.76995465 9.55679303 2.08134244 14 4 C14.33 4.66 14.66 5.32 15 6 C13.783125 5.835 12.56625 5.67 11.3125 5.5 C8.8906006 5.19191386 6.63515691 5 4.1875 5 C2 5 2 5 -1 4 C-0.67 2.68 -0.34 1.36 0 0 Z " fill="#6C808A" transform="translate(174,153)"/>
<path d="M0 0 C1.65 0.33 3.3 0.66 5 1 C5 1.99 5 2.98 5 4 C4.34 4.66 3.68 5.32 3 6 C2.67 5.34 2.34 4.68 2 4 C2 6.97 2 9.94 2 13 C1.01 13 0.02 13 -1 13 C-1.0272415 11.58344207 -1.04650467 10.16672955 -1.0625 8.75 C-1.07410156 7.96109375 -1.08570313 7.1721875 -1.09765625 6.359375 C-1.00385306 4.09308998 -0.63241063 2.1711105 0 0 Z " fill="#5C6E76" transform="translate(160,76)"/>
<path d="M0 0 C1.32 0 2.64 0 4 0 C3.67 1.98 3.34 3.96 3 6 C2.443125 6.103125 1.88625 6.20625 1.3125 6.3125 C-1.44176578 7.13133577 -3.58727657 8.45853781 -6 10 C-6.66 9.34 -7.32 8.68 -8 8 C-7.05125 7.4225 -6.1025 6.845 -5.125 6.25 C-2.23865902 4.17183449 -1.15904259 3.24531925 0 0 Z " fill="#B2B6B1" transform="translate(196,302)"/>
<path d="M0 0 C0.33 0.99 0.66 1.98 1 3 C1.66 2.34 2.32 1.68 3 1 C3 3.97 3 6.94 3 10 C1.35 10 -0.3 10 -2 10 C-2.1953125 3.9453125 -2.1953125 3.9453125 -2 2 C-1.34 1.34 -0.68 0.68 0 0 Z " fill="#B8C5C3" transform="translate(172,275)"/>
<path d="M0 0 C0.99 0 1.98 0 3 0 C2.125 6.75 2.125 6.75 1 9 C-0.98 9 -2.96 9 -5 9 C-3.99088542 7.2421875 -2.98177083 5.484375 -1.97265625 3.7265625 C-1.28280949 2.50201525 -0.62855462 1.25710923 0 0 Z " fill="#AEB0AE" transform="translate(201,242)"/>
<path d="M0 0 C6.625 -0.25 6.625 -0.25 10 2 C8.35 2.33 6.7 2.66 5 3 C5 4.32 5 5.64 5 7 C3.02 6.34 1.04 5.68 -1 5 C-0.67 3.35 -0.34 1.7 0 0 Z " fill="#3D555E" transform="translate(341,162)"/>
<path d="M0 0 C0 3.63 0 7.26 0 11 C-2.64 11 -5.28 11 -8 11 C-8 10.67 -8 10.34 -8 10 C-5.69 10 -3.38 10 -1 10 C-1 7.36 -1 4.72 -1 2 C-3.31 2.66 -5.62 3.32 -8 4 C-8.33 3.01 -8.66 2.02 -9 1 C-6.04335481 -0.4783226 -3.25770263 -0.06032783 0 0 Z " fill="#607177" transform="translate(169,274)"/>
<path d="M0 0 C2 2 2 2 2 5 C3.32 5 4.64 5 6 5 C6 5.66 6 6.32 6 7 C4.741875 7.185625 3.48375 7.37125 2.1875 7.5625 C1.12595703 7.71912109 1.12595703 7.71912109 0.04296875 7.87890625 C-2 8 -2 8 -5 7 C-5 6.34 -5 5.68 -5 5 C-3.68 4.67 -2.36 4.34 -1 4 C-0.67 2.68 -0.34 1.36 0 0 Z " fill="#B6C0C1" transform="translate(212,244)"/>
<path d="M0 0 C0 3.3 0 6.6 0 10 C-0.66 10 -1.32 10 -2 10 C-2 7.69 -2 5.38 -2 3 C-4.31 3 -6.62 3 -9 3 C-9.33 2.34 -9.66 1.68 -10 1 C-2.25 0 -2.25 0 0 0 Z " fill="#909691" transform="translate(290,352)"/>
<path d="M0 0 C0 0.33 0 0.66 0 1 C-2.64 1.33 -5.28 1.66 -8 2 C-6.35 2.33 -4.7 2.66 -3 3 C-6.33333333 4.66666667 -9.66666667 6.33333333 -13 8 C-12.79375 7.38125 -12.5875 6.7625 -12.375 6.125 C-12.25125 5.42375 -12.1275 4.7225 -12 4 C-12.66 3.34 -13.32 2.68 -14 2 C-9.35150485 -0.3992233 -5.08913926 -0.19957409 0 0 Z " fill="#C3C7C5" transform="translate(328,266)"/>
<path d="M0 0 C3.34535104 5.01802656 2.11416971 10.28988023 1 16 C0.34 15.67 -0.32 15.34 -1 15 C-1.02685412 12.68756208 -1.04632841 10.3750373 -1.0625 8.0625 C-1.07410156 6.77472656 -1.08570313 5.48695313 -1.09765625 4.16015625 C-1 1 -1 1 0 0 Z " fill="#A3ABA3" transform="translate(142,230)"/>
<path d="M0 0 C2.97 0 5.94 0 9 0 C8.67 1.32 8.34 2.64 8 4 C5.36 4 2.72 4 0 4 C0 2.68 0 1.36 0 0 Z " fill="#ADAFAC" transform="translate(317,312)"/>
<path d="M0 0 C0.99 0.33 1.98 0.66 3 1 C3 3.64 3 6.28 3 9 C1.68 9 0.36 9 -1 9 C-1.09765625 2.84765625 -1.09765625 2.84765625 -1 1 C-0.67 0.67 -0.34 0.34 0 0 Z " fill="#A7ADA7" transform="translate(193,353)"/>
<path d="M0 0 C0.33 0 0.66 0 1 0 C1.33 4.62 1.66 9.24 2 14 C2.99 14.33 3.98 14.66 5 15 C5 15.99 5 16.98 5 18 C3.02 18 1.04 18 -1 18 C-0.505 9.09 -0.505 9.09 0 0 Z " fill="#BCBEBC" transform="translate(272,296)"/>
<path d="M0 0 C0.33 1.32 0.66 2.64 1 4 C-1.97 4 -4.94 4 -8 4 C-8 3.01 -8 2.02 -8 1 C-5.29120665 -0.35439668 -2.99066732 -0.06501451 0 0 Z " fill="#B0B2AF" transform="translate(303,247)"/>
<path d="M0 0 C0.33 0.66 0.66 1.32 1 2 C1.66 2.33 2.32 2.66 3 3 C2.835 3.78375 2.67 4.5675 2.5 5.375 C1.9376293 7.88208039 1.9376293 7.88208039 2 10 C0.68 10 -0.64 10 -2 10 C-1.979375 9.071875 -1.95875 8.14375 -1.9375 7.1875 C-1.84230396 3.97713989 -1.84230396 3.97713989 -3 1 C-2.01 0.67 -1.02 0.34 0 0 Z " fill="#536971" transform="translate(273,240)"/>
<path d="M0 0 C2.97 0 5.94 0 9 0 C9 0.99 9 1.98 9 3 C2.375 4.125 2.375 4.125 -1 3 C-0.67 2.01 -0.34 1.02 0 0 Z " fill="#475E65" transform="translate(252,251)"/>
<path d="M0 0 C0.33 0 0.66 0 1 0 C1.33 3.3 1.66 6.6 2 10 C1.01 10 0.02 10 -1 10 C-2.75 7.625 -2.75 7.625 -4 5 C-3.67 4.34 -3.34 3.68 -3 3 C-2.01 3 -1.02 3 0 3 C0 2.01 0 1.02 0 0 Z " fill="#A4B4B8" transform="translate(194,268)"/>
<path d="M0 0 C2.31 0 4.62 0 7 0 C7 0.99 7 1.98 7 3 C4.64561267 4.42944945 3.51967567 5.08661261 0.75 4.625 C0.1725 4.41875 -0.405 4.2125 -1 4 C-0.67 2.68 -0.34 1.36 0 0 Z " fill="#425960" transform="translate(211,251)"/>
<path d="M0 0 C0.33 0 0.66 0 1 0 C1.27573092 2.10094974 1.51978976 4.20607635 1.75 6.3125 C1.88921875 7.48425781 2.0284375 8.65601563 2.171875 9.86328125 C2 13 2 13 0.15625 14.9375 C-2 16 -2 16 -4.25 15.6875 C-4.8275 15.460625 -5.405 15.23375 -6 15 C-5.01 15 -4.02 15 -3 15 C-3 14.01 -3 13.02 -3 12 C-2.34 11.67 -1.68 11.34 -1 11 C-0.5316735 8.41394668 -0.5316735 8.41394668 -0.375 5.4375 C-0.30023438 4.42558594 -0.22546875 3.41367188 -0.1484375 2.37109375 C-0.09945313 1.58863281 -0.05046875 0.80617187 0 0 Z " fill="#42575E" transform="translate(278,232)"/>
<path d="M0 0 C0.33 0.99 0.66 1.98 1 3 C-1.3125 6.1875 -1.3125 6.1875 -4 9 C-4.66 9 -5.32 9 -6 9 C-5.42415568 6.61435923 -4.77772405 4.33317216 -4 2 C-1.9375 0.8125 -1.9375 0.8125 0 0 Z " fill="#5D7077" transform="translate(311,212)"/>
<path d="M0 0 C0.78375 0.04125 1.5675 0.0825 2.375 0.125 C2.705 0.785 3.035 1.445 3.375 2.125 C2.715 2.125 2.055 2.125 1.375 2.125 C1.375 2.785 1.375 3.445 1.375 4.125 C-1.125 5.75 -1.125 5.75 -3.625 7.125 C-4.25 4.75 -4.25 4.75 -4.625 2.125 C-2.625 0.125 -2.625 0.125 0 0 Z " fill="#66797E" transform="translate(334.625,171.875)"/>
<path d="M0 0 C0.33 1.32 0.66 2.64 1 4 C-1.64458379 5.32229189 -3.67761301 5.09677194 -6.625 5.0625 C-7.62789063 5.05347656 -8.63078125 5.04445312 -9.6640625 5.03515625 C-10.43492187 5.02355469 -11.20578125 5.01195312 -12 5 C-12 4.67 -12 4.34 -12 4 C-11.071875 3.87625 -10.14375 3.7525 -9.1875 3.625 C-5.86074765 3.18466918 -5.86074765 3.18466918 -3 1 C-2.01 0.67 -1.02 0.34 0 0 Z " fill="#BFC0BE" transform="translate(359,247)"/>
<path d="M0 0 C1.32 0 2.64 0 4 0 C4.66 1.98 5.32 3.96 6 6 C4.68 6.33 3.36 6.66 2 7 C0.5393715 4.35261084 0 3.10551666 0 0 Z " fill="#B7B9B7" transform="translate(298,346)"/>
<path d="M0 0 C1.65 0 3.3 0 5 0 C6.32229189 2.64458379 6.09677194 4.67761301 6.0625 7.625 C6.05347656 8.62789062 6.04445312 9.63078125 6.03515625 10.6640625 C6.02355469 11.43492187 6.01195312 12.20578125 6 13 C5.34 13 4.68 13 4 13 C4 9.37 4 5.74 4 2 C2.68 1.67 1.36 1.34 0 1 C0 0.67 0 0.34 0 0 Z M-3 1 C-1.02 1.99 -1.02 1.99 1 3 C0.01 3.33 -0.98 3.66 -2 4 C-2.33 3.01 -2.66 2.02 -3 1 Z " fill="#BBC0BB" transform="translate(141,219)"/>
<path d="M0 0 C0.66 0.33 1.32 0.66 2 1 C2 4.3 2 7.6 2 11 C1.01 11 0.02 11 -1 11 C-0.67 7.37 -0.34 3.74 0 0 Z " fill="#B7BAB5" transform="translate(191,287)"/>
<path d="M0 0 C10.55808656 -0.18451025 10.55808656 -0.18451025 15 1 C13.02 1.99 13.02 1.99 11 3 C11 3.66 11 4.32 11 5 C9.35 4.67 7.7 4.34 6 4 C6.66 3.34 7.32 2.68 8 2 C5.36 1.67 2.72 1.34 0 1 C0 0.67 0 0.34 0 0 Z " fill="#C1C5C3" transform="translate(271,267)"/>
<path d="M0 0 C0.66 0.33 1.32 0.66 2 1 C2 3.31 2 5.62 2 8 C1.01 8 0.02 8 -1 8 C-1.66 6.02 -2.32 4.04 -3 2 C-2.01 2 -1.02 2 0 2 C0 1.34 0 0.68 0 0 Z " fill="#B5B7B6" transform="translate(179,353)"/>
<path d="M0 0 C2 3 2 3 1.625 5.6875 C1.41875 6.450625 1.2125 7.21375 1 8 C0.01 8.33 -0.98 8.66 -2 9 C-2.25 3.375 -2.25 3.375 0 0 Z " fill="#A7ABA8" transform="translate(224,279)"/>
<path d="M0 0 C0.33 0.66 0.66 1.32 1 2 C-0.32 1.67 -1.64 1.34 -3 1 C-3 1.66 -3 2.32 -3 3 C-4.98 3.66 -6.96 4.32 -9 5 C-9.66 4.34 -10.32 3.68 -11 3 C-7.14243493 0.84694043 -4.44870215 -0.39253254 0 0 Z " fill="#5F7279" transform="translate(204,261)"/>
<path d="M0 0 C2.64 0 5.28 0 8 0 C8.33 0.99 8.66 1.98 9 3 C9.66 3 10.32 3 11 3 C11 3.66 11 4.32 11 5 C9.0625 4.6875 9.0625 4.6875 7 4 C6.67 3.01 6.34 2.02 6 1 C5.34 1 4.68 1 4 1 C3.67 1.66 3.34 2.32 3 3 C2.01 2.01 1.02 1.02 0 0 Z " fill="#A2B0AF" transform="translate(295,218)"/>
<path d="M0 0 C0.66 0 1.32 0 2 0 C2 2.64 2 5.28 2 8 C1.01 8 0.02 8 -1 8 C-1.04241723 5.66705225 -1.04092937 3.33297433 -1 1 C-0.67 0.67 -0.34 0.34 0 0 Z " fill="#A8ABAA" transform="translate(224,355)"/>
<path d="M0 0 C0.99 0 1.98 0 3 0 C3.33 0.99 3.66 1.98 4 3 C2.625 4.5 2.625 4.5 1 6 C0.34 6 -0.32 6 -1 6 C-1 5.01 -1 4.02 -1 3 C-1.66 2.67 -2.32 2.34 -3 2 C-2.01 2 -1.02 2 0 2 C0 1.34 0 0.68 0 0 Z " fill="#516970" transform="translate(197,276)"/>
<path d="M0 0 C-4.75 4.875 -4.75 4.875 -7 6 C-6.625 3.0625 -6.625 3.0625 -6 0 C-3.50907189 -1.24546405 -2.58919267 -0.7767578 0 0 Z " fill="#A3A8A4" transform="translate(317,270)"/>
<path d="M0 0 C6.0546875 -0.1953125 6.0546875 -0.1953125 8 0 C8.66 0.66 9.32 1.32 10 2 C6.01803543 3.05404945 3.01804691 2.84098656 -1 2 C-0.67 1.34 -0.34 0.68 0 0 Z " fill="#9A9E9B" transform="translate(320,267)"/>
<path d="M0 0 C2.1519437 3.22791555 2.20086443 4.28400809 2 8 C1.01 8 0.02 8 -1 8 C-1.12375 7.360625 -1.2475 6.72125 -1.375 6.0625 C-1.684375 5.0415625 -1.684375 5.0415625 -2 4 C-2.66 3.67 -3.32 3.34 -4 3 C-2.68 3 -1.36 3 0 3 C0 2.01 0 1.02 0 0 Z " fill="#B3B5B3" transform="translate(200,218)"/>
<path d="M0 0 C2.69082872 0.17635452 5.32851446 0.61835921 8 1 C7.360625 1.103125 6.72125 1.20625 6.0625 1.3125 C5.0415625 1.6528125 5.0415625 1.6528125 4 2 C3.67 2.99 3.34 3.98 3 5 C2.01 4.67 1.02 4.34 0 4 C-0.33 3.01 -0.66 2.02 -1 1 C-0.67 0.67 -0.34 0.34 0 0 Z " fill="#576C76" transform="translate(337,160)"/>
<path d="M0 0 C2.31 0.33 4.62 0.66 7 1 C7.33 2.65 7.66 4.3 8 6 C7.34 6 6.68 6 6 6 C6 5.34 6 4.68 6 4 C5.195625 3.71125 4.39125 3.4225 3.5625 3.125 C1 2 1 2 0 0 Z " fill="#60767D" transform="translate(175,149)"/>
<path d="M0 0 C1.98 0 3.96 0 6 0 C6 0.99 6 1.98 6 3 C5.01 3.33 4.02 3.66 3 4 C2.67 4.66 2.34 5.32 2 6 C1.34 4.02 0.68 2.04 0 0 Z " fill="#59707A" transform="translate(160,129)"/>
<path d="M0 0 C2.97 0 5.94 0 9 0 C9.33 0.66 9.66 1.32 10 2 C6.7 2.33 3.4 2.66 0 3 C0 2.01 0 1.02 0 0 Z " fill="#A0A19E" transform="translate(169,346)"/>
<path d="M0 0 C0.93423645 3.01031744 1.04449911 3.86650268 0 7 C-1.65 7.33 -3.3 7.66 -5 8 C-3.62845496 5.04590299 -2.01136276 2.55991624 0 0 Z " fill="#707F87" transform="translate(288,168)"/>
<path d="M0 0 C2.31 0.33 4.62 0.66 7 1 C5.68 1.33 4.36 1.66 3 2 C3 2.99 3 3.98 3 5 C0.69 4.67 -1.62 4.34 -4 4 C-3.34 3.525625 -2.68 3.05125 -2 2.5625 C-1.34 2.046875 -0.68 1.53125 0 1 C0 0.67 0 0.34 0 0 Z " fill="#BABCBB" transform="translate(314,310)"/>
<path d="M0 0 C0.66 0.66 1.32 1.32 2 2 C1.7578125 4.3828125 1.7578125 4.3828125 1.125 7.125 C0.92132813 8.03507813 0.71765625 8.94515625 0.5078125 9.8828125 C0.34023438 10.58148438 0.17265625 11.28015625 0 12 C-0.33 12 -0.66 12 -1 12 C-1.2226746 10.56465159 -1.42761906 9.12654475 -1.625 7.6875 C-1.74101562 6.88699219 -1.85703125 6.08648437 -1.9765625 5.26171875 C-2 3 -2 3 0 0 Z " fill="#CBCECE" transform="translate(299,226)"/>
<path d="M0 0 C2.475 0.495 2.475 0.495 5 1 C5 2.65 5 4.3 5 6 C4.01 5.67 3.02 5.34 2 5 C0.8125 2.4375 0.8125 2.4375 0 0 Z " fill="#ACADAC" transform="translate(217,346)"/>
<path d="M0 0 C0.99 0 1.98 0 3 0 C3.66 1.65 4.32 3.3 5 5 C4.01 5 3.02 5 2 5 C1.34 5.66 0.68 6.32 0 7 C0 4.69 0 2.38 0 0 Z " fill="#BFC1C0" transform="translate(307,301)"/>
<path d="M0 0 C1.65 0.33 3.3 0.66 5 1 C2.04816899 3.95183101 -0.95511947 4.08663988 -5 5 C-5 4.34 -5 3.68 -5 3 C-3.35 2.67 -1.7 2.34 0 2 C0 1.34 0 0.68 0 0 Z " fill="#758286" transform="translate(248,257)"/>
<path d="M0 0 C0.99 0 1.98 0 3 0 C3.33 1.65 3.66 3.3 4 5 C2.35 5 0.7 5 -1 5 C-0.67 3.35 -0.34 1.7 0 0 Z " fill="#A3ACA8" transform="translate(281,242)"/>
<path d="M0 0 C0.66 0.33 1.32 0.66 2 1 C2 1.66 2 2.32 2 3 C2.66 3 3.32 3 4 3 C4 3.66 4 4.32 4 5 C4.66 5.33 5.32 5.66 6 6 C4.1875 6.6875 4.1875 6.6875 2 7 C0.1875 5.8125 0.1875 5.8125 -1 4 C-0.6875 1.8125 -0.6875 1.8125 0 0 Z " fill="#6E7C86" transform="translate(192,114)"/>
<path d="M0 0 C1.32 0 2.64 0 4 0 C4.625 2.375 4.625 2.375 5 5 C4.34 5.66 3.68 6.32 3 7 C0 2.25 0 2.25 0 0 Z " fill="#AEAFAD" transform="translate(187,346)"/>
<path d="M0 0 C1.32 0 2.64 0 4 0 C3.67 1.98 3.34 3.96 3 6 C2.67 5.34 2.34 4.68 2 4 C1.01 4 0.02 4 -1 4 C-0.67 2.68 -0.34 1.36 0 0 Z " fill="#BAC0BB" transform="translate(196,302)"/>
<path d="M0 0 C2.31 0.33 4.62 0.66 7 1 C6.67 1.66 6.34 2.32 6 3 C3.69 3 1.38 3 -1 3 C-0.67 2.01 -0.34 1.02 0 0 Z " fill="#637175" transform="translate(352,164)"/>
<path d="M0 0 C1.98 0 3.96 0 6 0 C6.33 0.99 6.66 1.98 7 3 C6.67 3.66 6.34 4.32 6 5 C5.34 4.67 4.68 4.34 4 4 C4.33 3.34 4.66 2.68 5 2 C3.68 2.33 2.36 2.66 1 3 C0.67 2.01 0.34 1.02 0 0 Z " fill="#A3A8A3" transform="translate(281,269)"/>
<path d="M0 0 C0.33 0 0.66 0 1 0 C1 2.64 1 5.28 1 8 C0.01 8 -0.98 8 -2 8 C-2.33 6.68 -2.66 5.36 -3 4 C-2.01 4 -1.02 4 0 4 C0 2.68 0 1.36 0 0 Z " fill="#B6B7B6" transform="translate(365,220)"/>
<path d="M0 0 C1.4540625 0.0309375 1.4540625 0.0309375 2.9375 0.0625 C1.9475 0.3925 0.9575 0.7225 -0.0625 1.0625 C-0.79573796 3.07758358 -0.79573796 3.07758358 -1.0625 5.0625 C-1.7225 5.0625 -2.3825 5.0625 -3.0625 5.0625 C-3.625 3.125 -3.625 3.125 -4.0625 1.0625 C-3.0625 0.0625 -3.0625 0.0625 0 0 Z " fill="#B0C2C3" transform="translate(286.0625,217.9375)"/>
<path d="M0 0 C0.99 0.66 1.98 1.32 3 2 C2.01 3.485 2.01 3.485 1 5 C-0.32 5 -1.64 5 -3 5 C-2.625 3.0625 -2.625 3.0625 -2 1 C-1.34 0.67 -0.68 0.34 0 0 Z " fill="#C0CDCB" transform="translate(225,215)"/>
<path d="M0 0 C2.33944736 0.28730055 4.6739143 0.61936779 7 1 C6.01 1.66 5.02 2.32 4 3 C3.01 2.67 2.02 2.34 1 2 C0.67 3.32 0.34 4.64 0 6 C-0.38218767 4.34385343 -0.71395102 2.67542976 -1 1 C-0.67 0.67 -0.34 0.34 0 0 Z " fill="#808A8F" transform="translate(182,176)"/>
<path d="M0 0 C1.9375 0.75 1.9375 0.75 4 2 C4.75 4.125 4.75 4.125 5 6 C3.0625 5.25 3.0625 5.25 1 4 C0.25 1.875 0.25 1.875 0 0 Z " fill="#53646D" transform="translate(180,103)"/>
<path d="M0 0 C0.99 0 1.98 0 3 0 C2.67 1.65 2.34 3.3 2 5 C1.01 5 0.02 5 -1 5 C-0.67 3.35 -0.34 1.7 0 0 Z " fill="#B2B5B3" transform="translate(237,358)"/>
<path d="M0 0 C0.99 0 1.98 0 3 0 C3.33 1.65 3.66 3.3 4 5 C2.68 4.67 1.36 4.34 0 4 C0 2.68 0 1.36 0 0 Z " fill="#ACAEAD" transform="translate(248,358)"/>
<path d="M0 0 C0.99 0.33 1.98 0.66 3 1 C2.67 2.32 2.34 3.64 2 5 C1.34 4.34 0.68 3.68 0 3 C0 2.01 0 1.02 0 0 Z M-1 5 C-0.34 5.33 0.32 5.66 1 6 C1 6.66 1 7.32 1 8 C0.01 7.67 -0.98 7.34 -2 7 C-1.67 6.34 -1.34 5.68 -1 5 Z " fill="#B4BBB6" transform="translate(328,289)"/>
<path d="M0 0 C0.99 0.33 1.98 0.66 3 1 C3 1.66 3 2.32 3 3 C2.34 3 1.68 3 1 3 C1 3.66 1 4.32 1 5 C0.01 5 -0.98 5 -2 5 C-2 3.68 -2 2.36 -2 1 C-1.34 0.67 -0.68 0.34 0 0 Z " fill="#415860" transform="translate(242,257)"/>
<path d="M0 0 C3.63 0 7.26 0 11 0 C11 0.66 11 1.32 11 2 C9.741875 2.185625 8.48375 2.37125 7.1875 2.5625 C6.12595703 2.71912109 6.12595703 2.71912109 5.04296875 2.87890625 C3 3 3 3 0 2 C0 1.34 0 0.68 0 0 Z " fill="#9CA7A9" transform="translate(207,249)"/>
<path d="M0 0 C0.66 0 1.32 0 2 0 C2.33 1.98 2.66 3.96 3 6 C1.68 5.67 0.36 5.34 -1 5 C-0.67 3.35 -0.34 1.7 0 0 Z " fill="#59676C" transform="translate(223,225)"/>
<path d="M0 0 C0.33 0 0.66 0 1 0 C1.36923077 4.55384615 1.36923077 4.55384615 -0.5 6.8125 C-0.995 7.204375 -1.49 7.59625 -2 8 C-2.99 7.67 -3.98 7.34 -5 7 C-4.0409375 6.1028125 -4.0409375 6.1028125 -3.0625 5.1875 C-0.79689611 3.09189663 -0.79689611 3.09189663 0 0 Z " fill="#47585E" transform="translate(298,223)"/>
<path d="M0 0 C0.99 0 1.98 0 3 0 C2.6875 1.875 2.6875 1.875 2 4 C1.01 4.66 0.02 5.32 -1 6 C-1.042721 4.33388095 -1.04063832 2.66617115 -1 1 C-0.67 0.67 -0.34 0.34 0 0 Z " fill="#63787F" transform="translate(325,180)"/>
<path d="M0 0 C2.475 0.495 2.475 0.495 5 1 C3.625 3 3.625 3 2 5 C1.34 5 0.68 5 0 5 C0 3.35 0 1.7 0 0 Z " fill="#485C62" transform="translate(183,178)"/>
<path d="M0 0 C3.16115776 1.36983503 3.9927092 1.9890638 6 5 C3 5 3 5 0.8125 3 C0.214375 2.34 -0.38375 1.68 -1 1 C-0.67 0.67 -0.34 0.34 0 0 Z " fill="#54686F" transform="translate(262,176)"/>
<path d="M0 0 C2.4375 0.8125 2.4375 0.8125 5 2 C5.33 2.99 5.66 3.98 6 5 C5.01 5.33 4.02 5.66 3 6 C0 2.25 0 2.25 0 0 Z " fill="#66767D" transform="translate(164,136)"/>
</svg>
